<svg width="408" height="495" viewBox="0 0 408 495" fill="none" xmlns="http://www.w3.org/2000/svg">
<g clip-path="url(#clip0_109_213)">
<path d="M114.5 179.5L115.5 148.5L125.5 166L114.5 179.5Z" fill="#485F74"/>
<path d="M285 180.5V150.5L274 168.5L285 180.5Z" fill="#485F74"/>
<rect x="200.13" y="82.8306" width="132.74" height="132.74" rx="20" transform="rotate(45.1641 200.13 82.8306)" fill="#485F74"/>
<rect x="199.995" y="57" width="132.006" height="131.125" rx="20" transform="rotate(45.1641 199.995 57)" fill="#98BF79"/>
<g clip-path="url(#clip1_109_213)">
<path d="M183.64 127.436C180.307 125.511 176.386 124.87 172.614 125.633C168.841 126.395 165.477 128.509 163.154 131.577C160.83 134.646 159.706 138.457 159.994 142.295C160.282 146.132 161.962 149.733 164.717 152.42L195.877 182.644C197.879 184.582 200.268 186.075 202.888 187.024C205.507 187.972 208.298 188.355 211.077 188.148C213.855 187.94 216.558 187.146 219.008 185.818C221.458 184.491 223.598 182.659 225.289 180.445C226.98 178.23 228.182 175.683 228.818 172.97C229.453 170.257 229.506 167.44 228.975 164.705C228.443 161.97 227.338 159.379 225.732 157.101C224.127 154.824 222.057 152.913 219.66 151.493L214.898 148.864" stroke="white" stroke-width="2" stroke-linecap="round" stroke-linejoin="round"/>
<path d="M219.66 151.493C222.41 146.72 223.243 141.08 221.989 135.716C220.735 130.351 217.489 125.665 212.907 122.606C208.326 119.546 202.753 118.344 197.318 119.241C191.883 120.138 186.992 123.069 183.638 127.439C183.638 127.439 181.648 130.357 181.16 132.634" stroke="white" stroke-width="2" stroke-linecap="round" stroke-linejoin="round"/>
</g>
<path d="M115.5 147.5L116.5 116.5L126.5 134L115.5 147.5Z" fill="#485F74"/>
<path d="M286 148.5V118.5L275 136.5L286 148.5Z" fill="#485F74"/>
<rect x="201.13" y="50.8306" width="132.74" height="132.74" rx="20" transform="rotate(45.1641 201.13 50.8306)" fill="#485F74"/>
<rect x="200.995" y="25" width="132.006" height="131.125" rx="20" transform="rotate(45.1641 200.995 25)" fill="#98BF79"/>
<g clip-path="url(#clip2_109_213)">
<path d="M184.64 95.4357C181.307 93.5112 177.386 92.8701 173.614 93.6327C169.841 94.3954 166.477 96.5093 164.154 99.5774C161.83 102.645 160.706 106.457 160.994 110.294C161.282 114.132 162.962 117.733 165.717 120.42L196.877 150.644C198.879 152.582 201.268 154.075 203.888 155.024C206.507 155.972 209.298 156.355 212.077 156.148C214.855 155.94 217.558 155.146 220.008 153.818C222.458 152.491 224.598 150.659 226.289 148.445C227.98 146.23 229.182 143.682 229.818 140.97C230.453 138.257 230.506 135.44 229.975 132.705C229.443 129.97 228.338 127.379 226.732 125.101C225.127 122.824 223.057 120.913 220.66 119.493L215.898 116.864" stroke="white" stroke-width="2" stroke-linecap="round" stroke-linejoin="round"/>
<path d="M220.66 119.493C223.41 114.72 224.243 109.08 222.989 103.716C221.735 98.3514 218.489 93.6647 213.907 90.6055C209.326 87.5463 203.753 86.3435 198.318 87.241C192.883 88.1384 187.992 91.069 184.638 95.4386C184.638 95.4386 182.648 98.3574 182.16 100.634" stroke="white" stroke-width="2" stroke-linecap="round" stroke-linejoin="round"/>
</g>
<path d="M115.5 115.5L116.5 84.5L126.5 102L115.5 115.5Z" fill="#485F74"/>
<path d="M286 116.5V86.5L275 104.5L286 116.5Z" fill="#485F74"/>
<rect x="201.13" y="18.8306" width="132.74" height="132.74" rx="20" transform="rotate(45.1641 201.13 18.8306)" fill="#485F74"/>
<rect x="200.995" y="-7" width="132.006" height="131.125" rx="20" transform="rotate(45.1641 200.995 -7)" fill="#98BF79"/>
<g clip-path="url(#clip3_109_213)">
<path d="M184.64 63.4357C181.307 61.5112 177.386 60.87 173.614 61.6327C169.841 62.3953 166.477 64.5092 164.154 67.5773C161.83 70.6454 160.706 74.4565 160.994 78.2944C161.282 82.1324 162.962 85.7331 165.717 88.4201L196.877 118.644C198.879 120.582 201.268 122.075 203.888 123.024C206.507 123.972 209.298 124.355 212.077 124.148C214.855 123.94 217.558 123.146 220.008 121.818C222.458 120.491 224.598 118.659 226.289 116.445C227.98 114.23 229.182 111.682 229.818 108.97C230.453 106.257 230.506 103.44 229.975 100.705C229.443 97.9699 228.338 95.3785 226.732 93.1012C225.127 90.824 223.057 88.9126 220.66 87.4929L215.898 84.864" stroke="white" stroke-width="2" stroke-linecap="round" stroke-linejoin="round"/>
<path d="M220.66 87.4929C223.41 82.72 224.243 77.0797 222.989 71.7155C221.735 66.3514 218.489 61.6647 213.907 58.6055C209.326 55.5463 203.753 54.3435 198.318 55.2409C192.883 56.1384 187.992 59.0689 184.638 63.4385C184.638 63.4385 182.648 66.3574 182.16 68.6337" stroke="white" stroke-width="2" stroke-linecap="round" stroke-linejoin="round"/>
</g>
<path d="M228.5 303.5L229.5 272.5L239.5 290L228.5 303.5Z" fill="#485F74"/>
<path d="M399 304.5V274.5L388 292.5L399 304.5Z" fill="#485F74"/>
<rect x="314.13" y="206.831" width="132.74" height="132.74" rx="20" transform="rotate(45.1641 314.13 206.831)" fill="#485F74"/>
<rect x="313.995" y="181" width="132.006" height="131.125" rx="20" transform="rotate(45.1641 313.995 181)" fill="#98BF79"/>
<g clip-path="url(#clip4_109_213)">
<path d="M297.64 251.436C294.307 249.511 290.386 248.87 286.614 249.633C282.841 250.395 279.477 252.509 277.154 255.577C274.83 258.646 273.706 262.457 273.994 266.295C274.282 270.132 275.962 273.733 278.717 276.42L309.877 306.644C311.879 308.582 314.268 310.075 316.888 311.024C319.507 311.972 322.298 312.355 325.077 312.148C327.855 311.94 330.558 311.146 333.008 309.818C335.458 308.491 337.598 306.659 339.289 304.445C340.98 302.23 342.182 299.683 342.818 296.97C343.453 294.257 343.506 291.44 342.975 288.705C342.443 285.97 341.338 283.379 339.732 281.101C338.127 278.824 336.057 276.913 333.66 275.493L328.898 272.864" stroke="white" stroke-width="2" stroke-linecap="round" stroke-linejoin="round"/>
<path d="M333.66 275.493C336.41 270.72 337.243 265.08 335.989 259.716C334.735 254.351 331.489 249.665 326.907 246.606C322.326 243.546 316.753 242.344 311.318 243.241C305.883 244.138 300.992 247.069 297.638 251.439C297.638 251.439 295.648 254.357 295.16 256.634" stroke="white" stroke-width="2" stroke-linecap="round" stroke-linejoin="round"/>
</g>
<path d="M229.5 271.5L230.5 240.5L240.5 258L229.5 271.5Z" fill="#485F74"/>
<path d="M400 272.5V242.5L389 260.5L400 272.5Z" fill="#485F74"/>
<rect x="315.13" y="174.831" width="132.74" height="132.74" rx="20" transform="rotate(45.1641 315.13 174.831)" fill="#485F74"/>
<rect x="314.995" y="149" width="132.006" height="131.125" rx="20" transform="rotate(45.1641 314.995 149)" fill="#98BF79"/>
<g clip-path="url(#clip5_109_213)">
<path d="M298.64 219.436C295.307 217.511 291.386 216.87 287.614 217.633C283.841 218.395 280.477 220.509 278.154 223.577C275.83 226.646 274.706 230.457 274.994 234.295C275.282 238.132 276.962 241.733 279.717 244.42L310.877 274.644C312.879 276.582 315.268 278.075 317.888 279.024C320.507 279.972 323.298 280.355 326.077 280.148C328.855 279.94 331.558 279.146 334.008 277.818C336.458 276.491 338.598 274.659 340.289 272.445C341.98 270.23 343.182 267.683 343.818 264.97C344.453 262.257 344.506 259.44 343.975 256.705C343.443 253.97 342.338 251.379 340.732 249.101C339.127 246.824 337.057 244.913 334.66 243.493L329.898 240.864" stroke="white" stroke-width="2" stroke-linecap="round" stroke-linejoin="round"/>
<path d="M334.66 243.493C337.41 238.72 338.243 233.08 336.989 227.716C335.735 222.351 332.489 217.665 327.907 214.606C323.326 211.546 317.753 210.344 312.318 211.241C306.883 212.138 301.992 215.069 298.638 219.439C298.638 219.439 296.648 222.357 296.16 224.634" stroke="white" stroke-width="2" stroke-linecap="round" stroke-linejoin="round"/>
</g>
<path d="M229.5 239.5L230.5 208.5L240.5 226L229.5 239.5Z" fill="#485F74"/>
<path d="M400 240.5V210.5L389 228.5L400 240.5Z" fill="#485F74"/>
<rect x="315.13" y="142.831" width="132.74" height="132.74" rx="20" transform="rotate(45.1641 315.13 142.831)" fill="#485F74"/>
<rect x="314.995" y="117" width="132.006" height="131.125" rx="20" transform="rotate(45.1641 314.995 117)" fill="#98BF79"/>
<g clip-path="url(#clip6_109_213)">
<path d="M298.64 187.436C295.307 185.511 291.386 184.87 287.614 185.633C283.841 186.395 280.477 188.509 278.154 191.577C275.83 194.646 274.706 198.457 274.994 202.295C275.282 206.132 276.962 209.733 279.717 212.42L310.877 242.644C312.879 244.582 315.268 246.075 317.888 247.024C320.507 247.972 323.298 248.355 326.077 248.148C328.855 247.94 331.558 247.146 334.008 245.818C336.458 244.491 338.598 242.659 340.289 240.445C341.98 238.23 343.182 235.683 343.818 232.97C344.453 230.257 344.506 227.44 343.975 224.705C343.443 221.97 342.338 219.379 340.732 217.101C339.127 214.824 337.057 212.913 334.66 211.493L329.898 208.864" stroke="white" stroke-width="2" stroke-linecap="round" stroke-linejoin="round"/>
<path d="M334.66 211.493C337.41 206.72 338.243 201.08 336.989 195.716C335.735 190.351 332.489 185.665 327.907 182.606C323.326 179.546 317.753 178.344 312.318 179.241C306.883 180.138 301.992 183.069 298.638 187.439C298.638 187.439 296.648 190.357 296.16 192.634" stroke="white" stroke-width="2" stroke-linecap="round" stroke-linejoin="round"/>
</g>
<path d="M9.50002 307.5L10.5 276.5L20.5 294L9.50002 307.5Z" fill="#485F74"/>
<path d="M180 308.5V278.5L169 296.5L180 308.5Z" fill="#485F74"/>
<rect x="95.1302" y="210.831" width="132.74" height="132.74" rx="20" transform="rotate(45.1641 95.1302 210.831)" fill="#485F74"/>
<rect x="94.9946" y="185" width="132.006" height="131.125" rx="20" transform="rotate(45.1641 94.9946 185)" fill="#98BF79"/>
<g clip-path="url(#clip7_109_213)">
<path d="M78.6404 255.436C75.3074 253.511 71.3863 252.87 67.6138 253.633C63.8414 254.395 60.4773 256.509 58.1535 259.577C55.8298 262.646 54.7064 266.457 54.9943 270.295C55.2823 274.132 56.9619 277.733 59.7174 280.42L90.8772 310.644C92.8785 312.582 95.2677 314.075 97.8875 315.024C100.507 315.972 103.298 316.355 106.077 316.148C108.855 315.94 111.558 315.146 114.008 313.818C116.458 312.491 118.598 310.659 120.289 308.445C121.98 306.23 123.182 303.683 123.818 300.97C124.453 298.257 124.506 295.44 123.975 292.705C123.443 289.97 122.338 287.379 120.732 285.101C119.127 282.824 117.057 280.913 114.66 279.493L109.898 276.864" stroke="white" stroke-width="2" stroke-linecap="round" stroke-linejoin="round"/>
<path d="M114.66 279.493C117.41 274.72 118.243 269.08 116.989 263.716C115.735 258.351 112.489 253.665 107.907 250.606C103.326 247.546 97.7532 246.344 92.318 247.241C86.8828 248.138 81.9923 251.069 78.6377 255.439C78.6377 255.439 76.6477 258.357 76.1605 260.634" stroke="white" stroke-width="2" stroke-linecap="round" stroke-linejoin="round"/>
</g>
<path d="M10.5 275.5L11.5 244.5L21.5 262L10.5 275.5Z" fill="#485F74"/>
<path d="M181 276.5V246.5L170 264.5L181 276.5Z" fill="#485F74"/>
<rect x="96.1302" y="178.831" width="132.74" height="132.74" rx="20" transform="rotate(45.1641 96.1302 178.831)" fill="#485F74"/>
<rect x="95.9946" y="153" width="132.006" height="131.125" rx="20" transform="rotate(45.1641 95.9946 153)" fill="#98BF79"/>
<g clip-path="url(#clip8_109_213)">
<path d="M79.6404 223.436C76.3074 221.511 72.3863 220.87 68.6138 221.633C64.8414 222.395 61.4773 224.509 59.1535 227.577C56.8298 230.646 55.7064 234.457 55.9943 238.295C56.2823 242.132 57.9619 245.733 60.7174 248.42L91.8772 278.644C93.8785 280.582 96.2677 282.075 98.8875 283.024C101.507 283.972 104.298 284.355 107.077 284.148C109.855 283.94 112.558 283.146 115.008 281.818C117.458 280.491 119.598 278.659 121.289 276.445C122.98 274.23 124.182 271.683 124.818 268.97C125.453 266.257 125.506 263.44 124.975 260.705C124.443 257.97 123.338 255.379 121.732 253.101C120.127 250.824 118.057 248.913 115.66 247.493L110.898 244.864" stroke="white" stroke-width="2" stroke-linecap="round" stroke-linejoin="round"/>
<path d="M115.66 247.493C118.41 242.72 119.243 237.08 117.989 231.716C116.735 226.351 113.489 221.665 108.907 218.606C104.326 215.546 98.7532 214.344 93.318 215.241C87.8828 216.138 82.9923 219.069 79.6377 223.439C79.6377 223.439 77.6477 226.357 77.1605 228.634" stroke="white" stroke-width="2" stroke-linecap="round" stroke-linejoin="round"/>
</g>
<path d="M121.5 411.5L122.5 380.5L132.5 398L121.5 411.5Z" fill="#485F74"/>
<path d="M292 412.5V382.5L281 400.5L292 412.5Z" fill="#485F74"/>
<rect x="207.13" y="314.831" width="132.74" height="132.74" rx="20" transform="rotate(45.1641 207.13 314.831)" fill="#485F74"/>
<rect x="206.995" y="289" width="132.006" height="131.125" rx="20" transform="rotate(45.1641 206.995 289)" fill="#98BF79"/>
<g clip-path="url(#clip9_109_213)">
<path d="M190.64 359.436C187.307 357.511 183.386 356.87 179.614 357.633C175.841 358.395 172.477 360.509 170.154 363.577C167.83 366.646 166.706 370.457 166.994 374.295C167.282 378.132 168.962 381.733 171.717 384.42L202.877 414.644C204.879 416.582 207.268 418.075 209.888 419.024C212.507 419.972 215.298 420.355 218.077 420.148C220.855 419.94 223.558 419.146 226.008 417.818C228.458 416.491 230.598 414.659 232.289 412.445C233.98 410.23 235.182 407.683 235.818 404.97C236.453 402.257 236.506 399.44 235.975 396.705C235.443 393.97 234.338 391.379 232.732 389.101C231.127 386.824 229.057 384.913 226.66 383.493L221.898 380.864" stroke="white" stroke-width="2" stroke-linecap="round" stroke-linejoin="round"/>
<path d="M226.66 383.493C229.41 378.72 230.243 373.08 228.989 367.716C227.735 362.351 224.489 357.665 219.907 354.606C215.326 351.546 209.753 350.344 204.318 351.241C198.883 352.138 193.992 355.069 190.638 359.439C190.638 359.439 188.648 362.357 188.16 364.634" stroke="white" stroke-width="2" stroke-linecap="round" stroke-linejoin="round"/>
</g>
</g>
<defs>
<clipPath id="clip0_109_213">
<rect width="408" height="495" fill="white"/>
</clipPath>
<clipPath id="clip1_109_213">
<rect width="94.7121" height="94.7121" fill="white" transform="translate(199.926 82.1131) rotate(44.1263)"/>
</clipPath>
<clipPath id="clip2_109_213">
<rect width="94.7121" height="94.7121" fill="white" transform="translate(200.926 50.113) rotate(44.1263)"/>
</clipPath>
<clipPath id="clip3_109_213">
<rect width="94.7121" height="94.7121" fill="white" transform="translate(200.926 18.113) rotate(44.1263)"/>
</clipPath>
<clipPath id="clip4_109_213">
<rect width="94.7121" height="94.7121" fill="white" transform="translate(313.926 206.113) rotate(44.1263)"/>
</clipPath>
<clipPath id="clip5_109_213">
<rect width="94.7121" height="94.7121" fill="white" transform="translate(314.926 174.113) rotate(44.1263)"/>
</clipPath>
<clipPath id="clip6_109_213">
<rect width="94.7121" height="94.7121" fill="white" transform="translate(314.926 142.113) rotate(44.1263)"/>
</clipPath>
<clipPath id="clip7_109_213">
<rect width="94.7121" height="94.7121" fill="white" transform="translate(94.9257 210.113) rotate(44.1263)"/>
</clipPath>
<clipPath id="clip8_109_213">
<rect width="94.7121" height="94.7121" fill="white" transform="translate(95.9257 178.113) rotate(44.1263)"/>
</clipPath>
<clipPath id="clip9_109_213">
<rect width="94.7121" height="94.7121" fill="white" transform="translate(206.926 314.113) rotate(44.1263)"/>
</clipPath>
</defs>
</svg>
