<svg width="815" height="679" viewBox="0 0 815 679" fill="none" xmlns="http://www.w3.org/2000/svg">
<g clip-path="url(#clip0_14_2)">
<path d="M768.086 673.747H98.1003V678.136H768.086V673.747Z" fill="black"/>
<path d="M325.547 498.178C331.36 452.822 310.243 377.386 302.657 356.654C295.594 337.342 287.804 308.212 287.673 294.62C287.654 293.707 287.683 292.794 287.76 291.884C287.709 289.448 286.923 287.086 285.508 285.11L281.613 300.94L271.628 280.852L275.218 272.586C274.143 271.489 273.038 270.377 271.904 269.279C263.985 261.768 255.696 254.664 247.067 247.991V245.065L167.134 264.085L166.698 264.422C160.585 269.785 155.827 276.535 152.818 284.115C152.237 285.505 151.685 287.041 151.162 288.504L157.164 293.991L149.301 295.117C149.301 295.424 149.156 295.746 149.098 296.068L159.635 320.326L150.638 338.439C151.133 340.517 151.699 342.653 152.339 344.833C153.545 348.944 154.984 353.231 156.699 357.693C163.123 374.387 158.864 390.437 147.979 399.157C137.093 407.877 119.799 444.995 140.392 469.004C160.986 493.013 157.731 522.465 149.112 541.017C140.683 559.027 126.135 584.236 156.059 616.658C156.96 617.624 157.891 618.604 158.864 619.584H205.473L205.734 618.897C205.938 618.399 206.228 617.638 206.606 616.658C210.312 607.177 222.244 576.892 230.397 559.598C236.806 545.991 246.006 517.344 248.825 482.303C249.32 483.05 249.828 483.767 250.279 484.513C254.464 490.453 258.999 495.852 262.995 501.104C277.529 520.124 270.088 524.703 262.501 564.016C256.804 593.497 271.396 609.24 279.026 615.224C280.394 616.323 281.852 617.302 283.386 618.15L322.626 616.687C322.844 616.248 323.047 615.751 323.251 615.224C329.732 597.345 321.507 529.707 325.547 498.178Z" fill="black"/>
<path d="M165.68 264.656V237.018H170.04V259.126L242.794 242.125L236.021 222.3L240.134 220.881L248.491 245.3L165.68 264.656Z" fill="black"/>
<path d="M273.023 114.982C266.312 108.045 258.158 102.69 249.147 99.3029C240.136 95.9156 230.492 94.5799 220.907 95.3917L198.206 97.2937L198.569 101.683L221.255 99.781C230.201 99.0163 239.204 100.259 247.615 103.419C256.027 106.578 263.637 111.577 269.898 118.055L366.821 217.998L307.641 278.964L274.055 231.619L304.953 207.917L246.921 153.988L236.748 120.791L232.591 122.078L260.205 212.57L151.205 239.71C152.033 218.217 154.853 143.746 154.111 139.986L149.839 140.879C150.071 142.342 149.839 153.608 149.388 168.97L148.691 168.516L103.695 237.822L150.594 262.914L128.94 318.775L32.7146 266.835L97.9692 139.079C101.614 131.905 106.845 125.668 113.26 120.849C119.674 116.03 127.102 112.756 134.971 111.281L162.454 106.072L161.64 101.683L134.157 106.95C125.637 108.554 117.596 112.104 110.652 117.326C103.709 122.549 98.0472 129.305 94.1034 137.075L26.8723 268.664L131.207 324.978L156.059 260.866L109.945 236.286L149.068 175.89C148.429 196.373 147.499 222.241 146.699 242.534L146.583 245.46L265.756 215.803L249.479 162.415L298.195 207.683L268.053 230.8L307.133 285.87L372.925 217.998L273.023 114.982Z" fill="black"/>
<path d="M166.93 297.063L152.818 284.114L148.56 280.179L145.798 277.648L136.148 303.749L137.427 308.914L148.24 353.055L152.309 344.861L164.43 320.472L154.998 298.775L166.93 297.063ZM159.663 320.355L150.667 338.468L149.693 340.443L140.726 304.042L147.659 285.3L151.19 288.533L157.192 294.019L149.33 295.146L148.749 295.234L149.126 296.097L159.663 320.355Z" fill="black"/>
<path d="M280.043 240.764L277.311 243.792L264.856 257.618L276.25 259.272L271.89 269.279L266.803 280.984L282.979 313.566L287.658 294.634L294.271 267.772L295.172 264.085L280.043 240.764ZM285.507 285.11L281.612 300.94L271.628 280.852L275.218 272.586L282.484 255.731L273.546 254.458L279.432 247.904L290.449 264.802L285.507 285.11Z" fill="black"/>
<path d="M176.594 621.999C163.979 610.879 165.535 570.118 176.246 554.697C185.402 541.529 192 491.258 170.796 472.765C163.791 466.664 159.997 459.246 159.532 450.818C158.573 433.51 171.348 415.704 182.248 403.839C198.54 386.062 186.303 353.787 186.172 353.465L190.241 351.856C190.793 353.319 203.612 386.97 185.445 406.824C177.001 416.041 162.962 433.978 163.878 450.57C164.114 454.236 165.104 457.814 166.785 461.075C168.467 464.337 170.802 467.211 173.644 469.517C196.897 489.824 189.863 542.831 179.821 557.301C170.403 570.835 168.63 609.226 179.472 618.751L176.594 621.999Z" fill="white"/>
<path d="M207.609 619.848L203.685 617.916C234.205 555.004 244.596 501.031 247.983 466.868C252.343 423.151 247.183 392.661 241.443 379.844C228.203 350.202 237.998 312.645 238.42 311.08L242.634 312.221C242.533 312.586 232.824 349.866 245.425 378.059C257.836 405.799 264.914 501.426 207.609 619.848Z" fill="white"/>
<path d="M195.75 662.043L213.19 616.687H149.577L152.484 673.747L152.702 678.136H160.695L162.149 673.747L163.718 669.036L171.305 676.673H213.64V662.043H195.75ZM161.814 660.901L157.571 673.747H156.844L154.17 621.076H206.824L189.384 666.432H209.28V672.284H173.121L161.814 660.901Z" fill="black"/>
<path d="M314.923 660.58L332.363 615.224H268.75L271.773 673.747L271.919 676.673H279.912L280.886 673.747L282.935 667.573L290.521 675.21H332.813V660.58H314.923ZM280.987 659.438L276.744 672.284H276.017L273.343 619.613H325.997L308.557 664.969H328.453V670.821H292.294L280.987 659.438Z" fill="black"/>
<path d="M174.008 157.807L170.433 155.291C173.63 150.697 174.793 146.908 173.906 144.362C173.564 143.584 173.058 142.89 172.423 142.329C171.788 141.769 171.04 141.354 170.229 141.114L171.29 136.856C172.779 137.275 174.154 138.027 175.314 139.055C176.474 140.084 177.389 141.363 177.99 142.796C179.472 146.805 178.135 151.867 174.008 157.807Z" fill="#F4A019"/>
<path d="M123.534 148.385C113.884 145.151 110.657 135.7 110.454 135.217L114.581 133.754C114.581 133.754 117.299 141.552 124.754 144.083L123.534 148.385Z" fill="#F4A019"/>
<path d="M96.9373 203.221L93.4493 200.588C95.3387 198.042 112.343 175.906 125.234 182.387L123.286 186.308C115.075 182.153 101.486 197.12 96.9373 203.221Z" fill="#F4A019"/>
<path d="M88.2027 177.763L87.6505 173.374C97.5622 172.13 100.294 159.153 100.324 159.021L104.596 159.884C104.466 160.572 101.239 176.11 88.2027 177.763Z" fill="#F4A019"/>
<path d="M65.6329 264.334C63.6709 260.384 56.7095 258.57 54.1952 258.219L54.8056 253.83C55.2707 253.903 66.1561 255.541 69.5278 262.345L65.6329 264.334Z" fill="#F4A019"/>
<path d="M62.8279 236.008L60.706 232.175C60.8223 232.102 72.6669 225.343 72.6669 216.535H77.0269C77.0269 227.932 63.4092 235.686 62.8279 236.008Z" fill="#F4A019"/>
<path d="M107.692 256.77C103.986 246.836 84.0462 249.367 83.8573 249.455L83.2759 245.066C84.2351 244.949 106.849 242.14 111.761 255.307L107.692 256.77Z" fill="#F4A019"/>
<path d="M101.007 296.273V291.884C107.271 291.884 123.533 290.158 123.533 282.374H127.893C127.893 296.112 102.111 296.273 101.007 296.273Z" fill="#F4A019"/>
<path d="M84.2938 280.033L80.0792 278.877C80.3844 277.751 83.2184 267.86 88.7992 266.032C89.897 265.694 91.0634 265.652 92.1826 265.909C93.3017 266.165 94.3348 266.712 95.1793 267.495L92.447 270.918C91.1536 269.879 90.4269 270.113 90.1508 270.201C87.6656 270.991 85.1949 276.419 84.2938 280.033Z" fill="#F4A019"/>
<path d="M188.235 218.217C178.673 218.217 167.409 211.502 166.741 211.107L168.979 207.332C174.56 210.711 190.168 217.91 195.139 210.872L198.685 213.418C196.2 216.959 192.363 218.217 188.235 218.217Z" fill="#F4A019"/>
<path d="M225.034 172.16L221.139 170.199C221.364 169.748 221.491 169.254 221.511 168.749C221.531 168.244 221.444 167.741 221.256 167.273C219.454 162.313 209.803 157.222 206.243 155.686L207.958 151.648C209.411 152.291 222.491 158.144 225.398 165.766C225.781 166.799 225.947 167.901 225.884 169.002C225.822 170.102 225.532 171.178 225.034 172.16Z" fill="#F4A019"/>
<path d="M196.781 190.214C189.151 190.214 178.135 182.694 176.798 181.758L179.269 178.159C184.181 181.567 193.584 186.644 197.857 185.723C198.177 185.678 198.483 185.562 198.752 185.382C199.021 185.202 199.247 184.963 199.412 184.684L203.162 186.937C202.688 187.727 202.055 188.408 201.305 188.938C200.554 189.467 199.701 189.832 198.802 190.009C198.137 190.148 197.46 190.217 196.781 190.214Z" fill="#F4A019"/>
<path d="M231.08 212.307L226.72 211.985C226.822 210.522 227.897 197.822 233.987 192.848C234.929 192.071 236.023 191.502 237.197 191.177C238.37 190.852 239.599 190.778 240.803 190.96L240.193 195.35C239.578 195.254 238.95 195.292 238.351 195.461C237.751 195.63 237.195 195.926 236.719 196.33C232.795 199.475 231.313 208.927 231.08 212.307Z" fill="#F4A019"/>
<path d="M216.416 131.837C215.81 131.84 215.209 131.731 214.643 131.515C210.166 129.847 208.219 122.005 207.885 120.454L212.128 119.489C212.782 122.415 214.555 126.804 216.154 127.404C216.285 127.404 216.634 127.579 217.418 126.994L220.034 130.506C219.008 131.341 217.735 131.809 216.416 131.837Z" fill="#F4A019"/>
<path d="M263.053 125.825H258.693C258.693 120.382 247.808 112.452 240.948 108.736L243.012 104.874C245.061 105.985 263.053 116.022 263.053 125.825Z" fill="#F4A019"/>
<path d="M279.563 171.151C276.046 167.01 274.433 162.943 274.796 159.066C275.049 156.306 276.338 153.747 278.401 151.911L281.133 155.335L279.767 153.623L281.148 155.32C279.972 156.425 279.251 157.934 279.127 159.549C278.924 162.182 280.174 165.123 282.877 168.327L279.563 171.151Z" fill="#F4A019"/>
<path d="M332.581 204.348L328.686 202.387C332 195.716 318.106 187.757 317.96 187.757L320.053 183.894C320.78 184.289 337.828 193.858 332.581 204.348Z" fill="#F4A019"/>
<path d="M297.119 193.213C290.274 186.322 296.451 173.667 296.713 173.125L300.607 175.086C299.154 178.012 296.364 186.249 300.2 190.112L297.119 193.213Z" fill="#F4A019"/>
<path d="M292.847 237.194L289.94 233.917C290.885 233.068 299.358 225.607 306.232 227.304C307.679 227.701 308.999 228.467 310.066 229.528C311.133 230.589 311.91 231.91 312.322 233.361L308.252 234.824C307.206 232.015 305.694 231.649 305.2 231.518C301.262 230.596 294.809 235.424 292.847 237.194Z" fill="#F4A019"/>
<path d="M309.211 258.496C307.989 258.497 306.77 258.399 305.563 258.203L306.275 253.814C306.9 253.917 321.652 256.155 324.122 242.417L328.482 243.207C326.23 255.394 316.333 258.496 309.211 258.496Z" fill="#F4A019"/>
<path d="M336.403 219.667L333.569 216.331C334.208 215.775 340.007 210.947 345.53 212.073C346.84 212.362 348.063 212.961 349.097 213.821C350.13 214.682 350.945 215.778 351.474 217.018L347.579 218.979C347.328 218.348 346.935 217.784 346.43 217.332C345.926 216.88 345.324 216.553 344.672 216.375C341.751 215.804 337.711 218.555 336.403 219.667Z" fill="#F4A019"/>
<path d="M234.524 80.1467C232.066 78.361 229.437 76.8269 226.676 75.5673C223.77 74.2212 223.77 74.2212 223.77 68.7639C223.597 64.0645 222.649 59.4267 220.965 55.0403C222.738 47.7249 224.002 28.2074 186.942 28.2513C186.942 28.2513 173.775 24.9886 171.406 35.318C171.406 35.318 171.406 35.435 171.406 35.5082C169.168 46.0716 156.786 42.8236 152.774 48.471C148.763 54.1185 150.594 57.0886 152.309 63.9065C154.024 70.7245 148.327 68.6176 143.415 72.3339C138.503 76.0501 132.123 81.1123 140.625 85.2967L166.45 90.7833L161.698 100.22C161.108 101.376 160.76 102.641 160.676 103.937C160.591 105.234 160.772 106.534 161.206 107.757C161.641 108.98 162.32 110.101 163.202 111.049C164.084 111.998 165.15 112.754 166.334 113.271L186.346 122.049C187.544 122.573 188.834 122.846 190.14 122.854C191.422 122.85 192.691 122.583 193.868 122.07C195.045 121.557 196.107 120.809 196.988 119.87C197.868 118.931 198.55 117.822 198.992 116.609C199.434 115.397 199.626 114.107 199.557 112.817L198.409 90.9735C199.508 90.8135 200.58 90.4983 201.592 90.0371C204.92 90.1395 211.765 90.198 214.323 90.198C228.275 90.198 235.891 88.5594 236.995 85.2967C237.417 84.0385 237.329 82.1511 234.524 80.1467ZM202.013 84.5652C201.148 85.3482 200.129 85.9412 199.023 86.3065C197.917 86.6717 196.748 86.8012 195.59 86.6867C193.861 86.5299 192.168 86.0952 190.576 85.3991C190.267 83.8583 189.459 82.464 188.279 81.4342C182.67 76.4305 178.004 72.4216 181.943 68.6762C185.881 64.9307 185.082 60.0733 182.321 56.1229C182.293 56.0861 182.269 56.0469 182.248 56.0059C181.95 55.5382 181.822 54.9809 181.887 54.4289C181.951 53.8769 182.204 53.3647 182.602 52.9795C183 52.5944 183.518 52.3603 184.069 52.3172C184.619 52.2741 185.167 52.4247 185.62 52.7432L191.433 56.8837L207.551 57.3812C207.551 57.5421 207.551 57.7177 207.551 57.8933C207.542 57.9613 207.542 58.0301 207.551 58.0981V58.4492C207.559 58.5222 207.559 58.5958 207.551 58.6687C207.739 61.7412 207.551 73.8555 204.644 81.3172C203.936 82.5284 203.049 83.6237 202.013 84.5652ZM193.032 117.484C192.32 117.988 191.492 118.299 190.626 118.386C189.76 118.473 188.887 118.334 188.09 117.982L168.078 109.203C167.442 108.924 166.869 108.517 166.394 108.007C165.92 107.496 165.555 106.894 165.321 106.236C165.086 105.578 164.988 104.879 165.033 104.181C165.077 103.484 165.263 102.803 165.578 102.181L170.883 91.7343L188.323 95.4359C189.304 93.751 190.024 91.9256 190.459 90.0225C191.623 90.4274 192.819 90.7309 194.035 90.9296L195.197 113.007C195.246 113.878 195.072 114.746 194.693 115.53C194.314 116.313 193.742 116.986 193.032 117.484ZM207.565 85.6479C207.97 84.9201 208.329 84.1676 208.641 83.3947C213.102 75.8745 213.001 65.3696 212.012 57.7323V57.5568L217.302 57.7177C218.588 61.2642 219.313 64.9914 219.453 68.7639C219.453 76.2988 220.398 77.4546 224.831 79.5468C227.352 80.6903 229.753 82.0873 231.996 83.7166L232.344 83.98C229.133 85.3699 217.811 85.9405 207.492 85.5893L207.565 85.6479Z" fill="black"/>
<path d="M534.1 91.4424C532.232 91.4424 530.405 92.0001 528.852 93.0451C527.298 94.09 526.087 95.5753 525.372 97.313C524.657 99.0508 524.47 100.963 524.835 102.808C525.199 104.652 526.099 106.347 527.42 107.677C528.741 109.007 530.424 109.913 532.257 110.28C534.089 110.647 535.989 110.458 537.715 109.738C539.441 109.019 540.916 107.8 541.955 106.236C542.993 104.672 543.547 102.833 543.547 100.952C543.543 98.4313 542.546 96.0147 540.775 94.232C539.005 92.4494 536.604 91.4462 534.1 91.4424ZM534.1 106.073C533.094 106.073 532.11 105.773 531.274 105.21C530.437 104.647 529.785 103.848 529.4 102.912C529.015 101.976 528.915 100.947 529.111 99.9534C529.307 98.96 529.792 98.0476 530.503 97.3314C531.214 96.6153 532.121 96.1276 533.108 95.93C534.094 95.7324 535.117 95.8338 536.046 96.2214C536.976 96.609 537.77 97.2653 538.329 98.1074C538.888 98.9495 539.187 99.9396 539.187 100.952C539.187 102.31 538.651 103.613 537.697 104.573C536.743 105.534 535.449 106.073 534.1 106.073Z" fill="black"/>
<path d="M410.567 111.925C408.986 111.925 407.44 112.397 406.126 113.281C404.811 114.165 403.787 115.422 403.182 116.892C402.577 118.363 402.418 119.981 402.727 121.542C403.035 123.103 403.796 124.537 404.914 125.662C406.032 126.787 407.457 127.554 409.007 127.864C410.558 128.175 412.165 128.015 413.625 127.406C415.086 126.797 416.334 125.766 417.213 124.443C418.091 123.119 418.56 121.563 418.56 119.972C418.556 117.839 417.713 115.794 416.214 114.286C414.716 112.778 412.685 111.929 410.567 111.925ZM410.567 123.63C409.848 123.63 409.145 123.415 408.548 123.013C407.95 122.611 407.485 122.04 407.21 121.372C406.935 120.703 406.863 119.968 407.003 119.258C407.143 118.549 407.489 117.897 407.997 117.386C408.505 116.874 409.153 116.526 409.858 116.384C410.562 116.243 411.293 116.316 411.957 116.593C412.621 116.869 413.188 117.338 413.588 117.94C413.987 118.541 414.2 119.248 414.2 119.972C414.2 120.942 413.817 121.872 413.136 122.558C412.454 123.244 411.53 123.63 410.567 123.63Z" fill="black"/>
<path d="M523.927 250.917C521.196 250.917 518.527 251.733 516.256 253.26C513.986 254.787 512.216 256.958 511.171 259.498C510.126 262.037 509.852 264.832 510.385 267.528C510.918 270.224 512.233 272.701 514.164 274.645C516.095 276.589 518.555 277.912 521.233 278.449C523.911 278.985 526.687 278.71 529.21 277.658C531.733 276.606 533.889 274.824 535.406 272.539C536.924 270.253 537.733 267.566 537.733 264.817C537.729 261.131 536.274 257.598 533.685 254.993C531.097 252.387 527.587 250.921 523.927 250.917ZM523.927 274.327C522.058 274.327 520.232 273.769 518.678 272.724C517.125 271.679 515.914 270.194 515.199 268.456C514.484 266.718 514.297 264.806 514.661 262.961C515.026 261.117 515.926 259.422 517.247 258.092C518.568 256.762 520.251 255.856 522.084 255.489C523.916 255.122 525.816 255.311 527.542 256.03C529.268 256.75 530.743 257.969 531.781 259.533C532.819 261.097 533.373 262.936 533.373 264.817C533.369 267.338 532.373 269.754 530.602 271.537C528.831 273.32 526.431 274.323 523.927 274.327Z" fill="black"/>
<path d="M414.926 312.366C412.196 312.366 409.526 313.181 407.256 314.709C404.985 316.236 403.216 318.407 402.171 320.946C401.126 323.486 400.852 326.281 401.385 328.977C401.918 331.673 403.233 334.15 405.164 336.094C407.094 338.038 409.555 339.361 412.233 339.898C414.911 340.434 417.687 340.159 420.21 339.107C422.733 338.055 424.889 336.273 426.406 333.988C427.923 331.702 428.733 329.015 428.733 326.266C428.729 322.58 427.273 319.047 424.685 316.442C422.097 313.836 418.587 312.37 414.926 312.366ZM414.926 335.776C413.058 335.776 411.232 335.218 409.678 334.173C408.125 333.128 406.914 331.643 406.199 329.905C405.484 328.167 405.297 326.255 405.661 324.41C406.026 322.565 406.925 320.871 408.247 319.541C409.568 318.211 411.251 317.305 413.083 316.938C414.916 316.571 416.815 316.76 418.541 317.479C420.268 318.199 421.743 319.418 422.781 320.982C423.819 322.546 424.373 324.385 424.373 326.266C424.369 328.787 423.373 331.203 421.602 332.986C419.831 334.768 417.431 335.772 414.926 335.776Z" fill="black"/>
<path d="M591.506 47.5501H481.838V0H477.478V47.5501H377.866V356.26H467.479L417.557 673.748L417.223 675.913L421.583 676.601L422.033 673.748L471.926 356.26H487.099L486.866 673.748V675.211H491.226V673.748L491.415 356.26H509.495L560.361 673.748L561.001 677.757L565.361 677.054L564.837 673.748L513.971 356.26H591.506V47.5501ZM587.146 351.87H382.226V51.9393H587.146V351.87Z" fill="black"/>
<path d="M422.513 287.978C423.748 288.651 425.042 289.338 426.393 290.026C435.864 294.697 445.565 298.877 455.46 302.55L460.474 304.452C465.086 306.178 469.872 307.939 474.833 309.734L479.004 311.197L485.806 313.655L487.128 314.138L491.488 315.718C495.557 317.181 499.651 318.644 503.769 320.107L508.478 321.848C517.706 325.257 527.008 328.812 536.236 332.558C546.918 336.947 554.083 338.995 558.618 338.995C561.422 338.995 563.225 338.191 564.213 336.611C568.864 329.105 548.226 308.446 499.976 264.451L499.162 263.705L493.973 258.98L491.517 256.756L488.611 254.108L488.044 253.595L487.157 252.791L484.251 250.099C477.667 244.129 471.069 238.131 464.674 232.249C472.929 228.665 480.85 225.314 488.32 222.154L488.669 222.008C489.889 221.481 491.096 220.983 492.287 220.457C500.819 216.858 508.594 213.536 515.541 210.435C518.021 209.323 520.39 208.235 522.648 207.172C542.631 197.75 553.298 190.288 550.871 182.124L546.686 183.382C548.27 188.708 537.341 195.467 520.002 203.573C517.958 204.548 515.827 205.524 513.608 206.499C506.908 209.498 499.481 212.673 491.619 216.009L489.512 216.916L486.605 218.116C480.065 220.896 473.21 223.822 466.04 226.894L461.128 229.016L459.675 227.728C447.786 216.74 436.814 206.294 428.137 197.325C418.197 187.084 414.171 175.687 416.191 163.543C419.505 143.484 438.427 123.952 457.785 108.751C458.934 107.844 460.096 106.951 461.244 106.073C474.499 96.0933 488.509 87.1706 503.144 79.3867L501.167 75.4656C486.236 83.3281 471.953 92.3792 458.454 102.533L454.995 105.21C435.055 120.88 415.45 141.304 411.889 162.811C409.637 176.418 414.055 189.059 424.969 200.398C433.689 209.41 444.72 219.901 456.637 230.932C447.612 234.883 438.209 239.126 428.501 243.69C411.061 251.884 403.198 259.536 403.591 267.758C404.027 275.044 410.959 281.555 422.513 287.978ZM430.39 247.787C437.734 244.315 444.899 241.032 451.885 237.941L460.125 234.327C467.668 241.262 475.501 248.372 483.277 255.424L485.588 257.531L487.128 258.994L491.415 262.886L494.075 265.3L494.991 266.134L500.165 270.831C514.785 284.159 528.868 297.166 539.593 307.963C561.161 329.646 560.71 333.875 560.405 334.489C560.318 334.591 557.934 336.903 537.762 328.71C527.72 324.628 517.605 320.795 507.577 317.093L502.94 315.293L491.445 311.124L487.23 309.661H487.085L479.6 306.851L475.429 305.388C471.781 304.072 468.162 302.74 464.674 301.423C463.032 300.824 461.404 300.209 459.791 299.595C448.963 295.625 438.349 291.088 427.992 286.003C426.655 285.33 425.362 284.642 424.141 283.954C414.287 278.482 408.154 273.084 407.907 267.729C407.689 261.613 415.232 254.927 430.39 247.787Z" fill="black"/>
<path d="M583.513 670.821C583.513 670.821 593.686 634.244 627.113 625.466C660.539 616.687 696.873 648.875 708.499 625.466C720.126 602.057 696.873 544.997 730.299 556.701C763.726 568.406 740.473 631.318 769.539 640.097C798.606 648.875 797.152 678.137 797.152 678.137H583.774L583.513 670.821Z" fill="black"/>
<path d="M40.6933 678.136C45.0533 679.599 135.596 678.136 135.596 678.136C135.596 678.136 139.52 651.8 113.36 644.485C87.1999 637.17 91.5599 638.633 90.1066 602.056C88.6532 565.479 81.3866 508.419 59.5866 537.68C37.7866 566.942 49.4133 602.056 29.0666 619.613C8.71999 637.17 0 645.948 0 678.136H40.6933Z" fill="black"/>
<path d="M815 303.983L728.57 366.193L666.76 279.17L753.204 216.959L815 303.983Z" fill="#F4A019"/>
<path d="M522.502 207.304L519.901 205.548V203.704C519.525 194.518 517.388 185.491 513.608 177.12C518.346 172.731 522.909 168.488 527.24 164.509C549.563 144.025 563.036 131.604 559.926 123.001C558.08 117.953 551.031 115.437 537.094 114.852C515.089 113.932 493.049 115.369 471.345 119.139L461.172 106.19L460.314 105.108C459.631 104.244 458.977 103.425 458.381 102.65C455.751 99.3431 453.745 96.7973 452.379 95.1587C449.967 92.2325 448.964 91.0035 447.22 92.3496C445.476 93.6956 446.159 94.8222 449.458 99.3284L449.879 99.0066C451.057 100.47 452.684 102.489 454.922 105.327L457.8 108.868C460.183 111.896 463.09 115.598 466.52 120.104C446.173 124.493 430.303 131.575 427.571 142.05C424.838 152.526 435.404 163.997 458.963 176.067C470.4 181.919 481.053 187.581 490.805 193.068C479.801 204.092 469.39 215.701 459.617 227.845C457.001 231.137 454.399 234.502 451.856 237.941C443.348 249.379 435.697 261.439 428.966 274.02C427.062 277.605 425.478 280.882 424.17 283.896C423.545 285.359 422.993 286.676 422.484 287.978C416.249 304.262 419.127 311.387 423.269 314.313C425.566 315.893 428.307 316.688 431.088 316.581C439.008 316.581 449.632 311.782 460.401 304.394C461.855 303.413 463.308 302.374 464.761 301.306C469.326 297.887 473.693 294.209 477.841 290.289C479.624 288.612 481.363 286.895 483.059 285.139C483.161 285.037 483.262 284.949 483.35 284.847C484.614 283.53 485.864 282.199 487.099 280.823C488.582 279.175 490.035 277.488 491.459 275.761C492.912 273.991 494.366 272.177 495.746 270.333C496.313 269.602 496.866 268.87 497.389 268.109C497.912 267.348 498.726 266.266 499.365 265.329L499.932 264.525C511.021 248.241 518.825 229.689 519.799 210.771C539.158 224.027 551.409 236.477 554.127 248.811C555.914 256.975 553.56 265.095 546.86 273.684L550.29 276.376C557.789 266.734 560.463 257.356 558.327 247.889C555.406 234.356 542.849 221.261 522.502 207.304ZM515.366 202.636C510.018 199.213 504.229 195.716 497.999 192.146C502.127 188.069 506.186 184.167 510.178 180.442C513.149 187.489 514.904 194.995 515.366 202.636ZM536.919 119.241C551.147 119.841 555.028 122.43 555.813 124.508C557.92 130.36 542.34 144.684 524.29 161.275C520.23 164.991 515.996 168.893 511.588 172.98C509.369 168.775 506.787 164.775 503.871 161.026C492.244 145.918 482.419 133.238 474.397 122.986C495.054 119.574 516.006 118.319 536.919 119.241ZM460.968 172.146C439.793 161.29 429.707 151.268 431.814 143.162C434.038 134.603 449.08 128.019 469.528 123.923C477.086 133.608 487.114 146.542 500.412 163.748C503.408 167.613 506.032 171.758 508.245 176.125C503.624 180.515 498.871 185.05 494.061 189.834C483.96 184.172 472.958 178.291 460.968 172.146ZM498.348 259.038C497.796 259.901 497.243 260.75 496.662 261.584C496.081 262.418 495.412 263.427 494.773 264.334L494.133 265.212C493.261 266.427 492.375 267.626 491.474 268.797C490.02 270.64 488.567 272.396 487.114 274.152C486.198 275.264 485.253 276.346 484.294 277.414C482.957 278.877 481.606 280.341 480.225 281.804L479.004 283.047C473.116 289.084 466.712 294.587 459.864 299.492C458.41 300.575 456.884 301.57 455.431 302.506C441.886 311.197 430.521 314.211 425.885 310.787C422.092 308.007 422.353 300.663 426.408 289.982C426.902 288.665 427.454 287.305 428.065 285.9C429.402 282.842 430.971 279.55 432.846 276.054C440.735 261.367 449.867 247.391 460.14 234.283C462.078 231.815 464.015 229.377 465.953 226.967C475.371 215.482 485.152 204.933 494.773 195.263C501.487 199.11 507.736 202.871 513.463 206.572L515.483 207.889C515.483 208.767 515.454 209.645 515.396 210.522C514.48 227.509 507.925 244.144 498.348 259.038Z" fill="#F4A019"/>
<path d="M767.868 355.879L736.694 308.095L692.906 337.049L667.167 354.065L712.496 423.561L782.009 377.606L767.868 355.879ZM673.198 355.323L695.434 340.619L735.386 314.182L764.264 358.44L775.891 376.318L713.659 417.46L673.198 355.323Z" fill="black"/>
</g>
<defs>
<clipPath id="clip0_14_2">
<rect width="815" height="679" fill="white"/>
</clipPath>
</defs>
</svg>
