<svg width="119" height="38" viewBox="0 0 119 38" fill="none" xmlns="http://www.w3.org/2000/svg">
<g clip-path="url(#clip0_16_4)">
<path d="M45.5173 16.632C44.352 7.45334 36.4933 0.333344 27 0.333344C19.6507 0.333344 13.2667 4.62934 10.352 11.4C4.62401 13.112 0.333344 18.52 0.333344 24.3333C0.333344 31.6853 6.31468 37.6667 13.6667 37.6667H43C48.8827 37.6667 53.6667 32.8827 53.6667 27C53.6626 24.6096 52.8577 22.2896 51.3805 20.4102C49.9034 18.5309 47.8391 17.2007 45.5173 16.632V16.632ZM43 32.3333H13.6667C9.25601 32.3333 5.66668 28.744 5.66668 24.3333C5.66668 20.5893 8.86401 16.984 12.7947 16.2933L14.344 16.0213L14.856 14.5333C16.7307 9.06401 21.3867 5.66668 27 5.66668C34.352 5.66668 40.3333 11.648 40.3333 19V21.6667H43C45.9413 21.6667 48.3333 24.0587 48.3333 27C48.3333 29.9413 45.9413 32.3333 43 32.3333Z" fill="#B9C1AC"/>
<path d="M74.576 11.056V28H71.168V20.632H63.92V28H60.536V11.056H63.92V17.92H71.168V11.056H74.576ZM90.1494 20.848C90.1494 21.184 90.1094 21.568 90.0294 22H80.2854C80.3334 23.184 80.6534 24.056 81.2454 24.616C81.8374 25.176 82.5734 25.456 83.4534 25.456C84.2374 25.456 84.8854 25.264 85.3974 24.88C85.9254 24.496 86.2614 23.976 86.4054 23.32H89.9814C89.8054 24.248 89.4294 25.08 88.8534 25.816C88.2774 26.552 87.5334 27.128 86.6214 27.544C85.7254 27.96 84.7254 28.168 83.6214 28.168C82.3254 28.168 81.1734 27.896 80.1654 27.352C79.1574 26.792 78.3734 26 77.8134 24.976C77.2534 23.952 76.9734 22.744 76.9734 21.352C76.9734 19.96 77.2534 18.752 77.8134 17.728C78.3734 16.688 79.1574 15.896 80.1654 15.352C81.1734 14.808 82.3254 14.536 83.6214 14.536C84.9334 14.536 86.0774 14.808 87.0534 15.352C88.0454 15.896 88.8054 16.648 89.3334 17.608C89.8774 18.552 90.1494 19.632 90.1494 20.848ZM86.7414 20.512C86.7894 19.424 86.5014 18.6 85.8774 18.04C85.2694 17.48 84.5174 17.2 83.6214 17.2C82.7094 17.2 81.9414 17.48 81.3174 18.04C80.6934 18.6 80.3494 19.424 80.2854 20.512H86.7414ZM100.64 28L97.6156 23.728L95.0716 28H91.3516L95.7436 21.064L91.2556 14.704H95.0476L97.9996 18.904L100.544 14.704H104.264L99.7996 21.448L104.432 28H100.64ZM113.273 25.096V28H111.497C110.009 28 108.865 27.64 108.065 26.92C107.281 26.2 106.889 25 106.889 23.32V17.56H105.041V14.704H106.889V11.416H110.273V14.704H113.249V17.56H110.273V23.368C110.273 24.008 110.401 24.456 110.657 24.712C110.913 24.968 111.345 25.096 111.953 25.096H113.273Z" fill="#8B9977"/>
</g>
<defs>
<clipPath id="clip0_16_4">
<rect width="119" height="38" fill="white"/>
</clipPath>
</defs>
</svg>
