<svg width="352" height="151" viewBox="0 0 352 151" fill="none" xmlns="http://www.w3.org/2000/svg">
<g clip-path="url(#clip0_16_4)">
<path d="M63.9545 0L129.115 37.6203V112.861L63.9545 150.481L-1.20576 112.861V37.6203L63.9545 0Z" fill="#98BF79"/>
<path d="M197.1 94.536V113.286H135.794V39.5502H195.731V58.3001H160.232V66.9378H191.412V84.845H160.232V94.536H197.1ZM252.82 113.286L240.075 93.588L227.645 113.286H199.309L225.959 76.1021L200.257 39.5502H228.171L240.707 58.0895L252.926 39.5502H279.681L254.084 75.154L281.261 113.286H252.82ZM299.215 58.8268H277.621V39.5502H345.669V58.8268H324.075V113.286H299.215V58.8268Z" fill="#49494D"/>
<path d="M101.259 39.5502V113.286H76.3994V86.1091H53.436V113.286H28.5764V39.5502H53.436V65.6737H76.3994V39.5502H101.259Z" fill="#49494D"/>
</g>
<defs>
<clipPath id="clip0_16_4">
<rect width="351.75" height="150.481" fill="white"/>
</clipPath>
</defs>
</svg>
