<svg width="605" height="341" viewBox="0 0 605 341" fill="none" xmlns="http://www.w3.org/2000/svg">
<mask id="path-1-inside-1_108_107" fill="white">
<path fill-rule="evenodd" clip-rule="evenodd" d="M406.226 195C418.735 195 429.734 201.936 436.065 212.418C440.894 210.607 446.085 209.622 451.49 209.622C477.294 209.622 498.213 232.067 498.213 259.754C498.213 287.442 477.294 309.887 451.49 309.887C441.539 309.887 432.314 306.549 424.736 300.86C416.24 310.29 404.328 316.153 391.139 316.153C371.42 316.153 354.554 303.047 347.695 284.51C333.291 278.904 323 264.091 323 246.699C323 224.491 339.779 206.489 360.476 206.489C366.57 206.489 372.323 208.049 377.409 210.818C383.863 201.235 394.366 195 406.226 195Z"/>
</mask>
<path d="M436.065 212.418L432.641 214.486L434.358 217.33L437.469 216.163L436.065 212.418ZM424.736 300.86L427.137 297.661L424.212 295.465L421.764 298.182L424.736 300.86ZM347.695 284.51L351.447 283.122L350.823 281.435L349.146 280.783L347.695 284.51ZM377.409 210.818L375.497 214.331L378.694 216.071L380.727 213.052L377.409 210.818ZM439.489 210.35C432.511 198.797 420.28 191 406.226 191V199C417.19 199 426.956 205.074 432.641 214.486L439.489 210.35ZM451.49 205.622C445.594 205.622 439.928 206.697 434.66 208.673L437.469 216.163C441.859 214.517 446.575 213.622 451.49 213.622V205.622ZM502.213 259.754C502.213 230.128 479.764 205.622 451.49 205.622V213.622C474.825 213.622 494.213 234.006 494.213 259.754H502.213ZM451.49 313.887C479.764 313.887 502.213 289.381 502.213 259.754H494.213C494.213 285.502 474.825 305.887 451.49 305.887V313.887ZM422.335 304.059C430.564 310.237 440.622 313.887 451.49 313.887V305.887C442.455 305.887 434.064 302.861 427.137 297.661L422.335 304.059ZM421.764 298.182C413.962 306.843 403.1 312.153 391.139 312.153V320.153C405.555 320.153 418.519 313.737 427.708 303.537L421.764 298.182ZM391.139 312.153C373.285 312.153 357.794 300.277 351.447 283.122L343.944 285.898C351.314 305.817 369.554 320.153 391.139 320.153V312.153ZM319 246.699C319 265.655 330.225 282.003 346.245 288.238L349.146 280.783C336.357 275.805 327 262.527 327 246.699H319ZM360.476 202.489C337.309 202.489 319 222.552 319 246.699H327C327 226.431 342.248 210.489 360.476 210.489V202.489ZM379.322 207.305C373.672 204.229 367.264 202.489 360.476 202.489V210.489C365.876 210.489 370.975 211.869 375.497 214.331L379.322 207.305ZM406.226 191C392.904 191 381.212 198.01 374.092 208.583L380.727 213.052C386.513 204.461 395.827 199 406.226 199V191Z" fill="#717070" mask="url(#path-1-inside-1_108_107)"/>
<mask id="path-3-inside-2_108_107" fill="white">
<path fill-rule="evenodd" clip-rule="evenodd" d="M119.713 27.4534C137.018 27.4534 152.235 37.0485 160.993 51.5508C167.674 49.0446 174.855 47.6822 182.333 47.6822C218.033 47.6822 246.973 78.7339 246.973 117.038C246.973 155.342 218.033 186.394 182.333 186.394C168.567 186.394 155.805 181.776 145.321 173.906C133.567 186.952 117.086 195.064 98.84 195.064C71.56 195.064 48.227 176.932 38.7383 151.287C18.8102 143.531 4.57333 123.038 4.57333 98.9767C4.57333 68.2535 27.7859 43.3475 56.42 43.3475C64.85 43.3475 72.8102 45.5062 79.8464 49.3365C88.7745 36.0799 103.305 27.4534 119.713 27.4534Z"/>
</mask>
<path d="M160.993 51.5508L157.569 53.6187L159.287 56.463L162.398 55.2959L160.993 51.5508ZM145.321 173.906L147.722 170.707L144.797 168.511L142.349 171.229L145.321 173.906ZM38.7383 151.287L42.4898 149.899L41.8656 148.212L40.1892 147.559L38.7383 151.287ZM79.8464 49.3365L77.9339 52.8497L81.1308 54.59L83.1641 51.5709L79.8464 49.3365ZM164.417 49.4829C155.012 33.9099 138.563 23.4534 119.713 23.4534V31.4534C135.474 31.4534 149.457 40.1871 157.569 53.6187L164.417 49.4829ZM182.333 43.6822C174.365 43.6822 166.708 45.1347 159.588 47.8056L162.398 55.2959C168.64 52.9546 175.346 51.6822 182.333 51.6822V43.6822ZM250.973 117.038C250.973 76.7947 220.503 43.6822 182.333 43.6822V51.6822C215.563 51.6822 242.973 80.6731 242.973 117.038H250.973ZM182.333 190.394C220.503 190.394 250.973 157.282 250.973 117.038H242.973C242.973 153.403 215.563 182.394 182.333 182.394V190.394ZM142.919 177.105C154.055 185.464 167.65 190.394 182.333 190.394V182.394C169.483 182.394 157.555 178.088 147.722 170.707L142.919 177.105ZM142.349 171.229C131.289 183.505 115.859 191.064 98.84 191.064V199.064C118.314 199.064 135.846 190.399 148.292 176.583L142.349 171.229ZM98.84 191.064C73.4255 191.064 51.4671 174.161 42.4898 149.899L34.9869 152.675C44.9869 179.702 69.6945 199.064 98.84 199.064V191.064ZM0.573334 98.9767C0.573334 124.601 15.7444 146.63 37.2875 155.015L40.1892 147.559C21.8759 140.432 8.57333 121.474 8.57333 98.9767H0.573334ZM56.42 39.3475C25.3161 39.3475 0.573334 66.3143 0.573334 98.9767H8.57333C8.57333 70.1927 30.2556 47.3475 56.42 47.3475V39.3475ZM81.7589 45.8233C74.1589 41.6861 65.544 39.3475 56.42 39.3475V47.3475C64.1561 47.3475 71.4614 49.3262 77.9339 52.8497L81.7589 45.8233ZM119.713 23.4534C101.844 23.4534 86.124 32.8547 76.5287 47.1021L83.1641 51.5709C91.425 39.305 104.766 31.4534 119.713 31.4534V23.4534Z" fill="#717070" mask="url(#path-3-inside-2_108_107)"/>
<path d="M293.504 79.0254C313.585 79.0254 329.864 61.5588 329.864 40.0127C329.864 18.4666 313.585 1 293.504 1C273.423 1 257.144 18.4666 257.144 40.0127C257.144 61.5588 273.423 79.0254 293.504 79.0254Z" fill="#2F2E41"/>
<path d="M258.957 290.454L257.994 272.771L321.107 260.367L322.529 286.468L258.957 290.454Z" fill="#FFB8B8"/>
<path d="M262.014 259.844L263.872 293.949L243.859 295.204L240.831 239.625C243.459 239.46 246.092 239.853 248.579 240.779C251.065 241.706 253.358 243.15 255.325 245.027C257.292 246.905 258.895 249.179 260.043 251.722C261.191 254.264 261.86 257.024 262.014 259.844Z" fill="#2F2E41"/>
<path d="M286.407 290.292L275.923 303.977L221.739 267.104L237.211 246.907L286.407 290.292Z" fill="#FFB8B8"/>
<path d="M264.791 310.538L285.009 284.146L300.496 297.804L267.549 340.814C265.515 339.021 263.83 336.815 262.591 334.323C261.352 331.83 260.582 329.101 260.326 326.289C260.07 323.478 260.332 320.64 261.098 317.937C261.865 315.235 263.119 312.721 264.791 310.538V310.538Z" fill="#2F2E41"/>
<path d="M256.238 226.652L249.075 262.889C248.91 263.724 248.919 264.587 249.101 265.417C249.284 266.247 249.636 267.023 250.131 267.69C250.627 268.357 251.253 268.899 251.967 269.275C252.68 269.651 253.462 269.854 254.257 269.867L324.685 271.086C325.479 271.1 326.266 270.925 326.989 270.575C327.713 270.224 328.355 269.706 328.87 269.058C329.386 268.409 329.761 267.647 329.969 266.825C330.178 266.003 330.214 265.142 330.076 264.303L323.916 226.847C323.696 225.509 323.044 224.297 322.074 223.424C321.103 222.551 319.878 222.072 318.611 222.072H261.508C260.273 222.072 259.076 222.527 258.117 223.361C257.158 224.195 256.495 225.357 256.238 226.652V226.652Z" fill="#2F2E41"/>
<path d="M267.917 239.411C267.917 239.411 199.237 193.174 185.771 217.737C179.037 230.019 182.404 241.94 187.454 250.79C192.14 258.848 198.868 265.308 206.849 269.416L262.531 298.653L282.731 275.534L269.264 262.53L267.917 239.411Z" fill="#2F2E41"/>
<path d="M302.931 232.186C302.931 232.186 391.811 204.733 374.304 256.75C356.797 308.767 290.811 288.538 290.811 288.538L284.077 266.864L306.971 249.525L302.931 232.186Z" fill="#2F2E41"/>
<path d="M293.96 84.4097C312.227 84.4097 327.035 68.5209 327.035 48.9211C327.035 29.3213 312.227 13.4325 293.96 13.4325C275.693 13.4325 260.884 29.3213 260.884 48.9211C260.884 68.5209 275.693 84.4097 293.96 84.4097Z" fill="#FFB8B8"/>
<path d="M295.693 237.921C281.949 237.698 268.276 235.765 254.947 232.161L254.553 232.045L236.096 140.951C234.436 132.946 235.565 124.566 239.27 117.393C242.975 110.221 248.999 104.752 256.206 102.02C278.466 93.4504 302.728 92.9306 325.289 100.54H325.289C332.86 103.157 339.232 108.741 343.135 116.177C347.037 123.613 348.184 132.355 346.345 140.657L325.729 231.969L325.439 232.117C316.872 236.472 306.159 237.921 295.693 237.921Z" fill="#0D599F"/>
<path d="M270.901 244.997C271.571 242.999 272.641 241.182 274.037 239.675C275.432 238.169 277.119 237.008 278.977 236.277C280.836 235.545 282.821 235.259 284.794 235.44C286.766 235.62 288.678 236.263 290.394 237.322L326.736 203.475L330.024 230.074L295.009 258.137C293.16 261.113 290.358 263.257 287.133 264.164C283.909 265.07 280.487 264.676 277.515 263.057C274.544 261.437 272.229 258.704 271.01 255.376C269.791 252.047 269.752 248.355 270.901 244.997V244.997Z" fill="#FFB8B8"/>
<path d="M305.561 252.38C304.97 252.379 304.381 252.287 303.815 252.105C302.896 251.818 302.053 251.298 301.359 250.59C300.665 249.882 300.139 249.006 299.826 248.035L295.439 234.701C295.029 233.469 294.976 232.132 295.289 230.867C295.603 229.602 296.266 228.469 297.193 227.617L346.708 195.722L327.189 102.292L327.686 102.164C327.888 102.11 347.886 97.2265 356.081 120.674C361.82 137.096 383.057 172.802 381.559 196.931C381.274 201.758 379.482 206.34 376.471 209.939C373.46 213.538 369.407 215.943 364.965 216.766L309.229 251.03C308.179 251.903 306.889 252.378 305.561 252.38Z" fill="#0D599F"/>
<path d="M311.114 241.828C310.444 239.829 309.374 238.012 307.978 236.506C306.583 234.999 304.896 233.839 303.038 233.107C301.179 232.375 299.194 232.09 297.221 232.27C295.249 232.451 293.337 233.093 291.621 234.152L255.279 200.306L251.991 226.904L287.006 254.968C288.855 257.943 291.657 260.087 294.882 260.994C298.106 261.901 301.528 261.507 304.5 259.887C307.471 258.268 309.786 255.535 311.005 252.206C312.224 248.878 312.263 245.185 311.114 241.828V241.828Z" fill="#FFB8B8"/>
<path d="M280.1 252.38C278.772 252.378 277.482 251.903 276.432 251.03L216.656 219.656C212.215 218.833 208.161 216.428 205.15 212.829C202.14 209.23 200.347 204.648 200.063 199.821C198.564 175.692 223.841 137.096 229.58 120.674C237.775 97.2266 257.773 102.109 257.975 102.164L258.472 102.292L234.913 198.612L288.468 227.617C289.395 228.469 290.059 229.602 290.372 230.867C290.685 232.132 290.633 233.469 290.222 234.701L285.836 248.035C285.522 249.006 284.996 249.882 284.302 250.59C283.608 251.298 282.766 251.818 281.846 252.105C281.28 252.287 280.692 252.379 280.1 252.38V252.38Z" fill="#0D599F"/>
<path d="M351.411 266.864H231.557C229.058 266.861 226.662 265.795 224.895 263.898C223.128 262.002 222.134 259.431 222.131 256.75V185.949C222.134 183.267 223.128 180.697 224.895 178.801C226.662 176.904 229.058 175.838 231.557 175.835H351.411C353.91 175.838 356.306 176.904 358.073 178.801C359.84 180.697 360.834 183.267 360.837 185.949V256.75C360.834 259.431 359.84 262.002 358.073 263.898C356.306 265.795 353.91 266.861 351.411 266.864V266.864Z" fill="#98BF79"/>
<path d="M291.484 230.019C295.946 230.019 299.564 226.138 299.564 221.35C299.564 216.562 295.946 212.68 291.484 212.68C287.022 212.68 283.404 216.562 283.404 221.35C283.404 226.138 287.022 230.019 291.484 230.019Z" fill="white"/>
<path d="M260.553 47.4767C258.593 42.1417 261.809 35.7838 266.58 33.1995C271.352 30.6151 277.109 31.1067 282.213 32.8099C286.502 34.2413 290.521 36.4596 294.706 38.2116C298.831 40.173 303.337 41.0341 307.84 40.7213C312.303 40.1805 316.745 37.4951 318.571 33.0922C320.464 28.5283 319.177 22.9588 316.261 19.0638C313.16 15.2983 309.145 12.5299 304.664 11.0665C294.824 7.34663 283.457 7.23788 274.321 12.645C265.185 18.0522 258.976 29.5653 260.865 40.5753" fill="#2F2E41"/>
<path d="M529.3 56.3417C529.3 50.3242 526.887 40.6824 535.745 40.3417C543.534 40.0421 548.635 39.062 555.745 42.7861C563.457 46.8256 564.3 56.5005 564.3 64.2306C564.3 70.2966 559.76 74.831 554.078 76.8972C547.916 79.1379 542.79 74.1431 539.856 69.3417C537.086 64.8092 531.362 51.8106 538.3 48.3417" stroke="#717070" stroke-width="3" stroke-linecap="round"/>
<path d="M56.345 295C50.5591 295 46.6835 300.238 44.5673 305C42.0341 310.7 48.5874 314.064 52.345 316C55.2004 317.471 55.5796 319.105 58.345 315.944C60.047 313.999 61.345 310.623 61.345 308C61.345 301.895 59.9337 302 54.345 302" stroke="#717070" stroke-width="3" stroke-linecap="round"/>
</svg>
