<svg width="100" height="100" viewBox="0 0 100 100" fill="none" xmlns="http://www.w3.org/2000/svg">
<g clip-path="url(#clip0_104_55)">
<rect x="2" y="2" width="96" height="96" rx="8" stroke="#0D599F" stroke-width="4"/>
<path d="M28.0391 44.6C26.8124 41.6133 25.5857 39.5333 24.3591 38.36C23.1857 37.1333 21.6124 36.4667 19.6391 36.36V34.76C19.9057 34.76 20.3057 34.7333 20.8391 34.68C21.3724 34.6267 21.9057 34.6 22.4391 34.6C25.3191 34.6 27.8524 35.3467 30.0391 36.84C32.2791 38.28 34.1457 40.8667 35.6391 44.6L42.4391 61.4L49.2391 44.2C47.9591 41.3733 46.7324 39.4 45.5591 38.28C44.4391 37.1067 42.9991 36.4667 41.2391 36.36V34.76C41.5057 34.76 41.9057 34.7333 42.4391 34.68C42.9724 34.6267 43.5057 34.6 44.0391 34.6C46.9191 34.6 49.4524 35.3467 51.6391 36.84C53.8791 38.28 55.7457 40.8667 57.2391 44.6L64.0391 61.4L74.4391 35.4H78.4391L62.8391 73.8H61.2391L51.2391 49L41.2391 73.8H39.6391L28.0391 44.6Z" fill="#98BF79"/>
</g>
<defs>
<clipPath id="clip0_104_55">
<rect width="100" height="100" fill="white"/>
</clipPath>
</defs>
</svg>
