<svg width="600" height="700" viewBox="0 0 600 700" fill="none" xmlns="http://www.w3.org/2000/svg">
<mask id="path-1-inside-1_61_21" fill="white">
<path fill-rule="evenodd" clip-rule="evenodd" d="M542.826 639.175C541.362 640.483 539.835 641.676 538.251 642.745C532.368 656.355 517.684 666 500.5 666C484.761 666 471.119 657.909 464.416 646.091C459.806 652.686 452.157 657 443.5 657C429.417 657 418 645.583 418 631.5C418 622.496 422.666 614.583 429.712 610.045C427.336 605.214 426 599.765 426 594C426 574.118 441.894 558 461.5 558C468.476 558 474.982 560.041 480.47 563.565C487.899 545.93 502.146 534 518.5 534C533.132 534 546.077 543.55 553.962 558.192C555.291 558.065 556.638 558 558 558C581.196 558 600 576.804 600 600C600 623.196 581.196 642 558 642C552.649 642 547.533 640.999 542.826 639.175Z"/>
</mask>
<path d="M538.251 642.745L536.573 640.258L535.846 640.749L535.497 641.555L538.251 642.745ZM542.826 639.175L543.911 636.378L542.198 635.714L540.828 636.938L542.826 639.175ZM464.416 646.091L467.025 644.611L464.68 640.476L461.957 644.372L464.416 646.091ZM429.712 610.045L431.337 612.567L433.584 611.12L432.404 608.721L429.712 610.045ZM480.47 563.565L478.848 566.089L481.849 568.017L483.234 564.73L480.47 563.565ZM553.962 558.192L551.321 559.614L552.265 561.367L554.247 561.178L553.962 558.192ZM539.929 645.232C541.63 644.084 543.264 642.807 544.825 641.413L540.828 636.938C539.461 638.159 538.04 639.268 536.573 640.258L539.929 645.232ZM500.5 669C518.778 669 534.607 658.735 541.005 643.935L535.497 641.555C530.128 653.976 516.589 663 500.5 663V669ZM461.806 647.571C469.076 660.387 483.75 669 500.5 669V663C485.773 663 473.163 655.432 467.025 644.611L461.806 647.571ZM443.5 660C453.178 660 461.728 655.173 466.875 647.809L461.957 644.372C457.885 650.199 451.136 654 443.5 654V660ZM415 631.5C415 647.24 427.76 660 443.5 660V654C431.074 654 421 643.926 421 631.5H415ZM428.088 607.523C420.221 612.589 415 621.434 415 631.5H421C421 623.559 425.112 616.576 431.337 612.567L428.088 607.523ZM432.404 608.721C430.227 604.294 429 599.297 429 594H423C423 600.233 424.446 606.134 427.02 611.369L432.404 608.721ZM429 594C429 575.735 443.59 561 461.5 561V555C440.198 555 423 572.501 423 594H429ZM461.5 561C467.882 561 473.828 562.865 478.848 566.089L482.091 561.041C476.136 557.216 469.07 555 461.5 555V561ZM518.5 531C500.558 531 485.435 544.052 477.705 562.4L483.234 564.73C490.363 547.808 503.733 537 518.5 537V531ZM556.604 556.769C548.36 541.461 534.544 531 518.5 531V537C531.721 537 543.795 545.639 551.321 559.614L556.604 556.769ZM558 555C556.543 555 555.101 555.069 553.678 555.205L554.247 561.178C555.481 561.06 556.733 561 558 561V555ZM603 600C603 575.147 582.853 555 558 555V561C579.539 561 597 578.461 597 600H603ZM558 645C582.853 645 603 624.853 603 600H597C597 621.539 579.539 639 558 639V645ZM541.742 641.973C546.789 643.929 552.273 645 558 645V639C553.026 639 548.277 638.07 543.911 636.378L541.742 641.973Z" fill="#B9C6D2" mask="url(#path-1-inside-1_61_21)"/>
<mask id="path-3-inside-2_61_21" fill="white">
<path fill-rule="evenodd" clip-rule="evenodd" d="M138.989 56.4664C135.626 37.4466 119.015 23 99.0303 23C81.4031 23 66.4009 34.2391 60.7988 49.9422C58.3649 48.8959 55.683 48.3164 52.8658 48.3164C43.4296 48.3164 35.5118 54.8176 33.3471 63.5852C33.1525 63.5818 32.9574 63.5801 32.7619 63.5801C14.668 63.5801 0 78.2481 0 96.342C0 114.436 14.668 129.104 32.7619 129.104C37.63 129.104 42.2501 128.042 46.4033 126.138C53.8453 135.221 65.1505 141.018 77.8095 141.018C89.2331 141.018 99.5542 136.297 106.929 128.701C113.735 133.86 122.22 136.922 131.42 136.922C153.832 136.922 172 118.754 172 96.3418C172 76.5167 157.784 60.0121 138.989 56.4664Z"/>
</mask>
<path d="M138.989 56.4664L136.035 56.9887L136.396 59.0301L138.433 59.4144L138.989 56.4664ZM60.7988 49.9422L59.614 52.6983L62.5504 53.9606L63.6244 50.9502L60.7988 49.9422ZM33.3471 63.5852L33.2946 66.5847L35.6863 66.6266L36.2597 64.3043L33.3471 63.5852ZM46.4033 126.138L48.7239 124.236L47.2569 122.446L45.1528 123.411L46.4033 126.138ZM106.929 128.701L108.741 126.31L106.625 124.706L104.776 126.611L106.929 128.701ZM99.0303 26C117.535 26 132.921 39.3771 136.035 56.9887L141.943 55.944C138.331 35.5161 120.496 20 99.0303 20V26ZM63.6244 50.9502C68.8138 36.4039 82.7109 26 99.0303 26V20C80.0952 20 63.988 32.0743 57.9732 48.9342L63.6244 50.9502ZM52.8658 51.3164C55.2682 51.3164 57.5475 51.8099 59.614 52.6983L61.9836 47.1861C59.1824 45.9818 56.0979 45.3164 52.8658 45.3164V51.3164ZM36.2597 64.3043C38.1014 56.8447 44.8417 51.3164 52.8658 51.3164V45.3164C42.0175 45.3164 32.9222 52.7904 30.4346 62.8661L36.2597 64.3043ZM32.7619 66.5801C32.9399 66.5801 33.1174 66.5816 33.2946 66.5847L33.3997 60.5857C33.1875 60.5819 32.9749 60.5801 32.7619 60.5801V66.5801ZM3 96.342C3 79.9049 16.3249 66.5801 32.7619 66.5801V60.5801C13.0112 60.5801 -3 76.5912 -3 96.342H3ZM32.7619 126.104C16.3249 126.104 3 112.779 3 96.342H-3C-3 116.093 13.0112 132.104 32.7619 132.104V126.104ZM45.1528 123.411C41.384 125.139 37.1897 126.104 32.7619 126.104V132.104C38.0703 132.104 43.1162 130.945 47.6538 128.864L45.1528 123.411ZM77.8095 138.018C66.0875 138.018 55.6206 132.654 48.7239 124.236L44.0827 128.039C52.07 137.788 64.2135 144.018 77.8095 144.018V138.018ZM104.776 126.611C97.9432 133.65 88.3891 138.018 77.8095 138.018V144.018C90.0771 144.018 101.165 138.945 109.081 130.79L104.776 126.611ZM131.42 133.922C122.897 133.922 115.044 131.088 108.741 126.31L105.116 131.092C112.426 136.633 121.543 139.922 131.42 139.922V133.922ZM169 96.3418C169 117.097 152.175 133.922 131.42 133.922V139.922C155.489 139.922 175 120.41 175 96.3418H169ZM138.433 59.4144C155.836 62.6976 169 77.9856 169 96.3418H175C175 75.0478 159.731 57.3265 139.545 53.5184L138.433 59.4144Z" fill="#B9C6D2" mask="url(#path-3-inside-2_61_21)"/>
<path d="M398.603 123.006C398.603 123.006 400.845 118.137 403.603 118.006C406.502 117.868 408.313 120.213 409.103 123.006C409.943 125.977 409.13 128.733 406.603 130.506C403.499 132.683 396.04 132.145 397.103 128.506C397.727 126.369 401.603 125.006 401.603 125.006" stroke="#B9C6D2" stroke-width="3"/>
<path d="M28.4127 658.064C24.6812 657.636 21.8876 659.37 19.9127 662.564C17.8592 665.886 19.9127 672.564 19.9127 672.564C19.9127 672.564 29.982 676.568 33.4127 672.564C37.3103 668.016 34.3634 658.747 28.4127 658.064Z" stroke="#B9C6D2" stroke-width="3"/>
<path d="M556.718 179.694C559.944 181.493 561.366 185.919 561.165 192.515C560.967 198.97 559.224 206.844 556.945 214.543C554.672 222.22 551.895 229.63 549.682 235.127C548.576 237.873 547.613 240.138 546.927 241.715C546.77 242.077 546.627 242.403 546.5 242.69L508.511 221.516C508.689 221.257 508.891 220.964 509.116 220.639C510.097 219.227 511.516 217.217 513.271 214.832C516.782 210.059 521.624 203.799 526.958 197.828C532.308 191.841 538.088 186.218 543.474 182.655C548.979 179.014 553.492 177.896 556.718 179.694Z" stroke="#BAD6A4" stroke-width="3"/>
<path d="M563.897 224.966L570.075 241.613L553.055 246.671L563.897 224.966Z" stroke="#BAD6A4" stroke-width="3"/>
<path d="M515.741 194.69L498.333 198.19L502.982 215.327L515.741 194.69Z" stroke="#BAD6A4" stroke-width="3"/>
<line x1="516.916" y1="233.642" x2="508.153" y2="249.365" stroke="#BAD6A4" stroke-width="3"/>
<line x1="523.031" y1="237.05" x2="511.346" y2="258.014" stroke="#BAD6A4" stroke-width="3"/>
<line x1="528.272" y1="239.972" x2="519.508" y2="255.694" stroke="#BAD6A4" stroke-width="3"/>
<path d="M549.393 208.24C547.6 211.457 543.804 212.566 540.988 210.996C538.171 209.427 537.118 205.614 538.911 202.398C540.704 199.181 544.501 198.072 547.317 199.641C550.133 201.211 551.186 205.023 549.393 208.24Z" stroke="#BAD6A4" stroke-width="3"/>
</svg>
