<svg width="600" height="700" viewBox="0 0 600 700" fill="none" xmlns="http://www.w3.org/2000/svg">
<mask id="path-1-inside-1_65_20" fill="white">
<path fill-rule="evenodd" clip-rule="evenodd" d="M519.03 66C539.015 66 555.626 80.4466 558.989 99.4664C577.784 103.012 592 119.517 592 139.342C592 155.567 582.478 169.568 568.717 176.061C561.994 189.181 548.335 198.16 532.58 198.16C524.257 198.16 516.519 195.655 510.08 191.356C503.641 195.655 495.903 198.16 487.58 198.16C471.216 198.16 457.115 188.475 450.696 174.523C436.502 170.93 426 158.072 426 142.762C426 126.711 437.543 113.356 452.781 110.545C453.239 99.8479 462.056 91.3164 472.866 91.3164C475.683 91.3164 478.365 91.8959 480.799 92.9422C486.401 77.2391 501.403 66 519.03 66Z"/>
</mask>
<path d="M558.989 99.4664L556.035 99.9887L556.396 102.03L558.433 102.414L558.989 99.4664ZM568.717 176.061L567.437 173.348L566.513 173.784L566.047 174.693L568.717 176.061ZM510.08 191.356L511.746 188.861L510.08 187.75L508.415 188.861L510.08 191.356ZM450.696 174.523L453.421 173.269L452.822 171.967L451.432 171.615L450.696 174.523ZM452.781 110.545L453.325 113.495L455.676 113.061L455.778 110.673L452.781 110.545ZM480.799 92.9422L479.614 95.6983L482.55 96.9606L483.624 93.9502L480.799 92.9422ZM561.943 98.944C558.331 78.5161 540.496 63 519.03 63V69C537.535 69 552.921 82.3771 556.035 99.9887L561.943 98.944ZM595 139.342C595 118.048 579.731 100.327 559.545 96.5184L558.433 102.414C575.836 105.698 589 120.986 589 139.342H595ZM569.997 178.775C584.769 171.804 595 156.771 595 139.342H589C589 154.363 580.187 167.332 567.437 173.348L569.997 178.775ZM532.58 201.16C549.505 201.16 564.17 191.512 571.387 177.43L566.047 174.693C559.817 186.851 547.166 195.16 532.58 195.16V201.16ZM508.415 193.852C515.332 198.469 523.646 201.16 532.58 201.16V195.16C524.868 195.16 517.707 192.84 511.746 188.861L508.415 193.852ZM487.58 201.16C496.514 201.16 504.829 198.469 511.746 193.852L508.415 188.861C502.453 192.84 495.292 195.16 487.58 195.16V201.16ZM447.97 175.777C454.861 190.753 470.002 201.16 487.58 201.16V195.16C472.431 195.16 459.369 186.196 453.421 173.269L447.97 175.777ZM423 142.762C423 159.478 434.467 173.509 449.959 177.432L451.432 171.615C438.538 168.351 429 156.666 429 142.762H423ZM452.236 107.595C435.602 110.663 423 125.238 423 142.762H429C429 128.184 439.484 116.048 453.325 113.495L452.236 107.595ZM455.778 110.673C456.168 101.575 463.67 94.3164 472.866 94.3164V88.3164C460.442 88.3164 450.31 98.1209 449.783 110.416L455.778 110.673ZM472.866 94.3164C475.268 94.3164 477.547 94.8099 479.614 95.6983L481.984 90.1861C479.182 88.9818 476.098 88.3164 472.866 88.3164V94.3164ZM519.03 63C500.095 63 483.988 75.0743 477.973 91.9342L483.624 93.9502C488.814 79.4039 502.711 69 519.03 69V63Z" fill="#B9C6D2" mask="url(#path-1-inside-1_65_20)"/>
<mask id="path-3-inside-2_65_20" fill="white">
<path fill-rule="evenodd" clip-rule="evenodd" d="M486.929 636.376C484.68 623.659 473.574 614 460.212 614C448.426 614 438.396 621.515 434.65 632.014C433.023 631.314 431.23 630.927 429.346 630.927C423.037 630.927 417.743 635.273 416.296 641.135C416.166 641.133 416.035 641.132 415.905 641.132C403.807 641.132 394 650.939 394 663.037C394 675.134 403.807 684.942 415.905 684.942C419.16 684.942 422.249 684.232 425.025 682.958C430.001 689.032 437.56 692.907 446.024 692.907C453.662 692.907 460.562 689.751 465.493 684.672C470.044 688.122 475.717 690.169 481.868 690.169C496.853 690.169 509 678.021 509 663.037C509 649.782 499.495 638.746 486.929 636.376Z"/>
</mask>
<path d="M486.929 636.376L483.974 636.898L484.335 638.939L486.372 639.324L486.929 636.376ZM434.65 632.014L433.466 634.77L436.402 636.032L437.476 633.022L434.65 632.014ZM416.296 641.135L416.244 644.135L418.635 644.177L419.209 641.855L416.296 641.135ZM425.025 682.958L427.346 681.057L425.879 679.266L423.775 680.231L425.025 682.958ZM465.493 684.672L467.305 682.281L465.19 680.678L463.341 682.582L465.493 684.672ZM460.212 617C472.094 617 481.975 625.59 483.974 636.898L489.883 635.853C487.385 621.729 475.055 611 460.212 611V617ZM437.476 633.022C440.809 623.679 449.734 617 460.212 617V611C447.119 611 435.983 619.35 431.825 631.006L437.476 633.022ZM429.346 633.927C430.815 633.927 432.206 634.228 433.466 634.77L435.835 629.258C433.841 628.4 431.645 627.927 429.346 627.927V633.927ZM419.209 641.855C420.333 637.301 424.449 633.927 429.346 633.927V627.927C421.625 627.927 415.154 633.246 413.384 640.416L419.209 641.855ZM415.905 644.132C416.018 644.132 416.131 644.133 416.244 644.135L416.349 638.136C416.201 638.133 416.053 638.132 415.905 638.132V644.132ZM397 663.037C397 652.596 405.464 644.132 415.905 644.132V638.132C402.15 638.132 391 649.282 391 663.037H397ZM415.905 681.942C405.464 681.942 397 673.478 397 663.037H391C391 676.791 402.15 687.942 415.905 687.942V681.942ZM423.775 680.231C421.383 681.328 418.719 681.942 415.905 681.942V687.942C419.6 687.942 423.115 687.135 426.276 685.685L423.775 680.231ZM446.024 689.907C438.497 689.907 431.776 686.465 427.346 681.057L422.705 684.859C428.226 691.598 436.623 695.907 446.024 695.907V689.907ZM463.341 682.582C458.951 687.104 452.818 689.907 446.024 689.907V695.907C454.506 695.907 462.173 692.399 467.646 686.762L463.341 682.582ZM481.868 687.169C476.394 687.169 471.353 685.35 467.305 682.281L463.681 687.063C468.735 690.894 475.04 693.169 481.868 693.169V687.169ZM506 663.037C506 676.364 495.196 687.169 481.868 687.169V693.169C498.509 693.169 512 679.678 512 663.037H506ZM486.372 639.324C497.547 641.432 506 651.25 506 663.037H512C512 648.313 501.442 636.061 487.485 633.428L486.372 639.324Z" fill="#B9C6D2" mask="url(#path-3-inside-2_65_20)"/>
</svg>
