<svg width="100" height="100" viewBox="0 0 100 100" fill="none" xmlns="http://www.w3.org/2000/svg">
<path d="M88.8339 67C92.5859 64.3686 95.3996 60.6133 96.8666 56.279C98.3336 51.9446 98.3776 47.2569 96.9922 42.8959C95.6069 38.535 92.8642 34.7278 89.1622 32.0268C85.4603 29.3258 80.9916 27.8716 76.4048 27.8751H70.9671C69.6691 22.8301 67.2405 18.1445 63.8641 14.171C60.4876 10.1976 56.2514 7.0398 51.4742 4.93546C46.697 2.83113 41.5035 1.83506 36.2845 2.02225C31.0655 2.20943 25.957 3.57499 21.3438 6.01612C16.7305 8.45725 12.7326 11.9103 9.65109 16.1154C6.56955 20.3205 4.48466 25.168 3.55338 30.293C2.6221 35.418 2.8687 40.6869 4.27461 45.7031C5.68052 50.7193 8.20911 55.352 11.67 59.2525" stroke="#0D599F" stroke-width="4" stroke-linecap="round" stroke-linejoin="round"/>
<rect x="18" y="50" width="64" height="21" rx="4" stroke="#0D599F" stroke-width="4"/>
<rect x="18" y="77" width="64" height="21" rx="4" stroke="#0D599F" stroke-width="4"/>
<circle cx="31" cy="88" r="6" fill="#98BF79"/>
<circle cx="31" cy="60" r="6" fill="#98BF79"/>
<line x1="40" y1="88" x2="76" y2="88" stroke="#98BF79" stroke-width="4"/>
<line x1="40" y1="60" x2="76" y2="60" stroke="#98BF79" stroke-width="4"/>
</svg>
