<svg width="100" height="100" viewBox="0 0 100 100" fill="none" xmlns="http://www.w3.org/2000/svg">
<g clip-path="url(#clip0_121_12)">
<g clip-path="url(#clip1_121_12)">
<path d="M12.5977 77.5213C12.864 76.5492 12.2803 75.1975 11.7232 74.2232C11.5505 73.9322 11.3623 73.6506 11.1595 73.3798C6.38156 66.1339 3.83495 57.6451 3.83525 48.9657C3.75535 24.0523 24.4141 3.83524 49.9601 3.83524C72.239 3.83524 90.8381 19.2694 95.1816 39.7572C95.8334 42.7947 96.163 45.8924 96.1648 48.999C96.1648 73.948 76.3029 94.4824 50.7569 94.4824C46.693 94.4824 41.2132 93.4615 38.2236 92.6247C35.234 91.788 32.2488 90.6783 31.4786 90.3809C30.6902 90.0781 29.8529 89.9224 29.0084 89.9214C28.0874 89.9182 27.1753 90.1016 26.3273 90.4608L11.2704 95.894C10.9414 96.0362 10.5927 96.1275 10.2362 96.1648C9.9542 96.1639 9.67519 96.1072 9.41528 95.9978C9.15538 95.8884 8.91975 95.7286 8.72201 95.5275C8.52428 95.3265 8.36837 95.0883 8.26331 94.8266C8.15825 94.5649 8.10612 94.285 8.10993 94.003C8.12845 93.7556 8.17309 93.5108 8.2431 93.2728L12.5977 77.5213Z" stroke="black" stroke-width="6" stroke-miterlimit="10" stroke-linecap="round"/>
<path d="M28.6932 57.1023C32.6156 57.1023 35.7954 53.9225 35.7954 50C35.7954 46.0775 32.6156 42.8977 28.6932 42.8977C24.7707 42.8977 21.5909 46.0775 21.5909 50C21.5909 53.9225 24.7707 57.1023 28.6932 57.1023Z" fill="#98BF79"/>
<path d="M50 57.1023C53.9225 57.1023 57.1023 53.9225 57.1023 50C57.1023 46.0775 53.9225 42.8977 50 42.8977C46.0775 42.8977 42.8977 46.0775 42.8977 50C42.8977 53.9225 46.0775 57.1023 50 57.1023Z" fill="#98BF79"/>
<path d="M71.3068 57.1023C75.2293 57.1023 78.4091 53.9225 78.4091 50C78.4091 46.0775 75.2293 42.8977 71.3068 42.8977C67.3843 42.8977 64.2045 46.0775 64.2045 50C64.2045 53.9225 67.3843 57.1023 71.3068 57.1023Z" fill="#98BF79"/>
</g>
</g>
<defs>
<clipPath id="clip0_121_12">
<rect width="100" height="100" fill="white"/>
</clipPath>
<clipPath id="clip1_121_12">
<rect width="100" height="100" fill="white"/>
</clipPath>
</defs>
</svg>
