<svg width="100" height="55" viewBox="0 0 100 55" fill="none" xmlns="http://www.w3.org/2000/svg">
<g clip-path="url(#clip0_143_59)">
<path d="M6.52695 37C5.92695 37 5.38529 36.85 4.90195 36.55C4.41862 36.25 4.02695 35.8583 3.72695 35.375C3.42695 34.8917 3.27695 34.35 3.27695 33.75V25.75C3.27695 25.15 3.42695 24.6083 3.72695 24.125C4.02695 23.6417 4.41862 23.25 4.90195 22.95C5.38529 22.65 5.92695 22.5 6.52695 22.5H17.977V25.2H6.60195C6.43529 25.2 6.28529 25.2667 6.15195 25.4C6.03529 25.5167 5.97695 25.6583 5.97695 25.825V33.675C5.97695 33.8417 6.03529 33.9917 6.15195 34.125C6.28529 34.2417 6.43529 34.3 6.60195 34.3H18.027V37H6.52695Z" fill="#98BF79"/>
<path d="M20.7848 37V19.025H35.5098C36.1098 19.025 36.6598 19.175 37.1598 19.475C37.6598 19.775 38.0514 20.175 38.3348 20.675C38.6348 21.1583 38.7848 21.6917 38.7848 22.275V27.325C38.7848 27.925 38.6348 28.475 38.3348 28.975C38.0514 29.4583 37.6598 29.85 37.1598 30.15C36.6598 30.4333 36.1098 30.575 35.5098 30.575L23.4848 30.6V37H20.7848ZM24.1098 27.85H35.4598C35.6264 27.85 35.7681 27.7917 35.8848 27.675C36.0014 27.5583 36.0598 27.4167 36.0598 27.25V22.35C36.0598 22.1833 36.0014 22.0417 35.8848 21.925C35.7681 21.7917 35.6264 21.725 35.4598 21.725H24.1098C23.9431 21.725 23.7931 21.7917 23.6598 21.925C23.5431 22.0417 23.4848 22.1833 23.4848 22.35V27.25C23.4848 27.4167 23.5431 27.5583 23.6598 27.675C23.7931 27.7917 23.9431 27.85 24.1098 27.85ZM43.7102 37C43.1102 37 42.5602 36.85 42.0602 36.55C41.5768 36.25 41.1852 35.8583 40.8852 35.375C40.6018 34.8917 40.4602 34.35 40.4602 33.75V28.4H52.4852V25.825C52.4852 25.6583 52.4268 25.5167 52.3102 25.4C52.1935 25.2667 52.0518 25.2 51.8852 25.2H40.4602V22.5H51.9602C52.5602 22.5 53.1018 22.65 53.5852 22.95C54.0852 23.2333 54.4768 23.625 54.7602 24.125C55.0602 24.625 55.2102 25.1667 55.2102 25.75V37H43.7102ZM43.7852 34.3H52.4852V30.925H43.1602V33.675C43.1602 33.8417 43.2185 33.9917 43.3352 34.125C43.4685 34.2417 43.6185 34.3 43.7852 34.3ZM57.5512 37V22.5H69.0512C69.6512 22.5 70.1928 22.65 70.6762 22.95C71.1762 23.25 71.5678 23.6417 71.8512 24.125C72.1512 24.6083 72.3012 25.15 72.3012 25.75V37H69.6012V25.825C69.6012 25.6583 69.5345 25.5167 69.4012 25.4C69.2845 25.2667 69.1428 25.2 68.9762 25.2H60.8762C60.7095 25.2 60.5595 25.2667 60.4262 25.4C60.3095 25.5167 60.2512 25.6583 60.2512 25.825V37H57.5512ZM77.8648 37C77.2648 37 76.7232 36.85 76.2398 36.55C75.7565 36.25 75.3648 35.8583 75.0648 35.375C74.7648 34.8917 74.6148 34.35 74.6148 33.75V25.75C74.6148 25.15 74.7648 24.6083 75.0648 24.125C75.3648 23.6417 75.7565 23.25 76.2398 22.95C76.7232 22.65 77.2648 22.5 77.8648 22.5H86.1148C86.7148 22.5 87.2565 22.65 87.7398 22.95C88.2398 23.2333 88.6315 23.625 88.9148 24.125C89.2148 24.625 89.3648 25.1667 89.3648 25.75V31.1H77.3148V33.675C77.3148 33.8417 77.3732 33.9917 77.4898 34.125C77.6232 34.2417 77.7732 34.3 77.9398 34.3H89.3648V37H77.8648ZM77.3148 28.575H86.6398V25.825C86.6398 25.6583 86.5815 25.5167 86.4648 25.4C86.3482 25.2667 86.2065 25.2 86.0398 25.2H77.9398C77.7732 25.2 77.6232 25.2667 77.4898 25.4C77.3732 25.5167 77.3148 25.6583 77.3148 25.825V28.575ZM94.6623 37C94.0623 37 93.5206 36.85 93.0373 36.55C92.554 36.25 92.1623 35.8583 91.8623 35.375C91.5623 34.8917 91.4123 34.35 91.4123 33.75V17.75H94.1123V33.675C94.1123 33.8417 94.1706 33.9917 94.2873 34.125C94.4206 34.2417 94.5706 34.3 94.7373 34.3H97.3623V37H94.6623Z" fill="black"/>
</g>
<defs>
<clipPath id="clip0_143_59">
<rect width="100" height="55" fill="white"/>
</clipPath>
</defs>
</svg>
