<svg width="100" height="100" viewBox="0 0 100 100" fill="none" xmlns="http://www.w3.org/2000/svg">
<g clip-path="url(#clip0_188_83)">
<path d="M20.8333 70.8333H16.6666C14.4565 70.8333 12.3369 69.9554 10.7741 68.3926C9.21129 66.8297 8.33331 64.7101 8.33331 62.5V20.8333C8.33331 18.6232 9.21129 16.5036 10.7741 14.9408C12.3369 13.378 14.4565 12.5 16.6666 12.5H83.3333C85.5435 12.5 87.6631 13.378 89.2259 14.9408C90.7887 16.5036 91.6667 18.6232 91.6667 20.8333V62.5C91.6667 64.7101 90.7887 66.8297 89.2259 68.3926C87.6631 69.9554 85.5435 70.8333 83.3333 70.8333H79.1667" stroke="black" stroke-width="6" stroke-linecap="round" stroke-linejoin="round"/>
<g clip-path="url(#clip1_188_83)">
<path d="M66.5 45.3333C66.5 58.1667 50 69.1667 50 69.1667C50 69.1667 33.5 58.1667 33.5 45.3333C33.5 40.9573 35.2384 36.7604 38.3327 33.6661C41.4271 30.5717 45.6239 28.8333 50 28.8333C54.3761 28.8333 58.5729 30.5717 61.6673 33.6661C64.7616 36.7604 66.5 40.9573 66.5 45.3333Z" stroke="#98BF79" stroke-width="6" stroke-linecap="round" stroke-linejoin="round"/>
<path d="M50 50.8333C53.0376 50.8333 55.5 48.3709 55.5 45.3333C55.5 42.2958 53.0376 39.8333 50 39.8333C46.9624 39.8333 44.5 42.2958 44.5 45.3333C44.5 48.3709 46.9624 50.8333 50 50.8333Z" stroke="#98BF79" stroke-width="6" stroke-linecap="round" stroke-linejoin="round"/>
</g>
</g>
<defs>
<clipPath id="clip0_188_83">
<rect width="100" height="100" fill="white"/>
</clipPath>
<clipPath id="clip1_188_83">
<rect width="44" height="44" fill="white" transform="translate(28 27)"/>
</clipPath>
</defs>
</svg>
