<svg width="80" height="100" viewBox="0 0 80 100" fill="none" xmlns="http://www.w3.org/2000/svg">
<path d="M75.2841 42.2874V85.5114C75.2841 88.3368 74.1617 91.0466 72.1638 93.0445C70.1659 95.0424 67.4561 96.1648 64.6307 96.1648H14.9148C12.0893 96.1648 9.37957 95.0424 7.38166 93.0445C5.38376 91.0466 4.26135 88.3368 4.26135 85.5114V14.4886C4.26135 11.6632 5.38376 8.95345 7.38166 6.95555C9.37957 4.95765 12.0893 3.83524 14.9148 3.83524H36.8319C38.7149 3.83552 40.5207 4.58355 41.8524 5.91487L73.2044 37.267C74.5358 38.5986 75.2838 40.4044 75.2841 42.2874Z" stroke="black" stroke-width="6" stroke-linejoin="round"/>
<path d="M39.7728 5.61081V32.2443C39.7728 34.128 40.521 35.9345 41.853 37.2664C43.1849 38.5983 44.9914 39.3466 46.875 39.3466H73.5086M22.0171 57.1023H57.5285M22.0171 74.858H57.5285" stroke="black" stroke-width="6" stroke-linecap="round" stroke-linejoin="round"/>
</svg>
