<svg width="100" height="100" viewBox="0 0 100 100" fill="none" xmlns="http://www.w3.org/2000/svg">
<g clip-path="url(#clip0_142_2)">
<path d="M11.8787 30.8787C10.7071 32.0503 10.7071 33.9497 11.8787 35.1213L30.9706 54.2132C32.1421 55.3848 34.0416 55.3848 35.2132 54.2132C36.3848 53.0416 36.3848 51.1421 35.2132 49.9706L18.2426 33L35.2132 16.0294C36.3848 14.8579 36.3848 12.9584 35.2132 11.7868C34.0416 10.6152 32.1421 10.6152 30.9706 11.7868L11.8787 30.8787ZM100 30L14 30V36L100 36V30Z" fill="#98BF79"/>
<path d="M91.1213 65.1213C92.2929 63.9497 92.2929 62.0503 91.1213 60.8787L72.0294 41.7868C70.8579 40.6152 68.9584 40.6152 67.7868 41.7868C66.6152 42.9584 66.6152 44.8579 67.7868 46.0294L84.7574 63L67.7868 79.9706C66.6152 81.1421 66.6152 83.0416 67.7868 84.2132C68.9584 85.3848 70.8579 85.3848 72.0294 84.2132L91.1213 65.1213ZM0 66H89V60H0V66Z" fill="#98BF79"/>
<line y1="-3" x2="40" y2="-3" transform="matrix(-1 0 0 1 95 100)" stroke="black" stroke-width="6"/>
<line x1="2.52625" y1="60.0046" x2="2.52625" y2="-3.99538" stroke="black" stroke-width="6"/>
<line x1="97" y1="100" x2="97" y2="36" stroke="black" stroke-width="6"/>
<path d="M44 14C44 15.6569 45.3431 17 47 17C48.6569 17 50 15.6569 50 14L44 14ZM50 14L50 1.31134e-07L44 -1.31134e-07L44 14L50 14Z" fill="black"/>
<path d="M50 80C50 78.3431 51.3431 77 53 77C54.6569 77 56 78.3431 56 80L50 80ZM50 100L50 80L56 80L56 100L50 100Z" fill="black"/>
<line x1="5" y1="3" x2="45" y2="3" stroke="black" stroke-width="6"/>
</g>
<defs>
<clipPath id="clip0_142_2">
<rect width="100" height="100" fill="white"/>
</clipPath>
</defs>
</svg>
