<svg width="100" height="100" viewBox="0 0 100 100" fill="none" xmlns="http://www.w3.org/2000/svg">
<g clip-path="url(#clip0_143_71)">
<path d="M95.8333 16.6667V41.6667H70.8333" stroke="black" stroke-width="6" stroke-linecap="round" stroke-linejoin="round"/>
<path d="M4.16669 83.3333V58.3333H29.1667" stroke="black" stroke-width="6" stroke-linecap="round" stroke-linejoin="round"/>
<path d="M14.625 37.5C16.7382 31.5283 20.3297 26.1892 25.0645 21.9809C29.7992 17.7726 35.5228 14.8324 41.7012 13.4344C47.8796 12.0365 54.3115 12.2264 60.3966 13.9866C66.4818 15.7467 72.0219 19.0196 76.5 23.5L95.8334 41.6667M4.16669 58.3333L23.5 76.5C27.9781 80.9804 33.5182 84.2533 39.6034 86.0135C45.6885 87.7736 52.1204 87.9635 58.2988 86.5656C64.4772 85.1677 70.2009 82.2274 74.9356 78.0191C79.6703 73.8108 83.2618 68.4717 85.375 62.5" stroke="black" stroke-width="6" stroke-linecap="round" stroke-linejoin="round"/>
<path d="M52.5781 27.4375V34.3984H48.9453V27.4375H52.5781ZM52.1328 65.7109V71.9922H48.5234V65.7109H52.1328ZM55.1797 58.0703C55.1797 57.1797 55.0078 56.4062 54.6641 55.75C54.3359 55.0938 53.7812 54.5078 53 53.9922C52.2344 53.4766 51.2031 52.9844 49.9062 52.5156C47.8906 51.7812 46.125 50.9766 44.6094 50.1016C43.0938 49.2109 41.9141 48.1094 41.0703 46.7969C40.2422 45.4844 39.8281 43.8281 39.8281 41.8281C39.8281 39.9062 40.2734 38.2422 41.1641 36.8359C42.0703 35.4141 43.3281 34.3203 44.9375 33.5547C46.5469 32.7734 48.4141 32.3828 50.5391 32.3828C52.1953 32.3828 53.6797 32.6328 54.9922 33.1328C56.3203 33.6172 57.4531 34.3281 58.3906 35.2656C59.3438 36.2031 60.0703 37.3594 60.5703 38.7344C61.0859 40.0938 61.3438 41.6484 61.3438 43.3984H55.1562C55.1562 42.4297 55.0469 41.5703 54.8281 40.8203C54.6094 40.0703 54.2969 39.4375 53.8906 38.9219C53.4844 38.3906 52.9922 37.9922 52.4141 37.7266C51.8516 37.4609 51.2109 37.3281 50.4922 37.3281C49.4609 37.3281 48.6094 37.5234 47.9375 37.9141C47.2812 38.3047 46.7969 38.8359 46.4844 39.5078C46.1875 40.1797 46.0391 40.9531 46.0391 41.8281C46.0391 42.6719 46.1953 43.4141 46.5078 44.0547C46.8359 44.6797 47.3828 45.25 48.1484 45.7656C48.9297 46.2812 50 46.8047 51.3594 47.3359C53.3906 48.0859 55.1562 48.9141 56.6562 49.8203C58.1562 50.7109 59.3203 51.8047 60.1484 53.1016C60.9766 54.3984 61.3906 56.0391 61.3906 58.0234C61.3906 60.0547 60.9219 61.7734 59.9844 63.1797C59.0625 64.5859 57.7656 65.6562 56.0938 66.3906C54.4219 67.125 52.4766 67.4922 50.2578 67.4922C48.8359 67.4922 47.4297 67.3047 46.0391 66.9297C44.6484 66.5547 43.3828 65.9453 42.2422 65.1016C41.1172 64.2422 40.2188 63.1094 39.5469 61.7031C38.875 60.2812 38.5391 58.5391 38.5391 56.4766H44.75C44.75 57.6641 44.9062 58.6484 45.2188 59.4297C45.5312 60.2109 45.9531 60.8359 46.4844 61.3047C47.0156 61.7578 47.6094 62.0781 48.2656 62.2656C48.9219 62.4531 49.5859 62.5469 50.2578 62.5469C51.3516 62.5469 52.2578 62.3594 52.9766 61.9844C53.7109 61.6094 54.2578 61.0859 54.6172 60.4141C54.9922 59.7266 55.1797 58.9453 55.1797 58.0703Z" fill="#98BF79"/>
</g>
<defs>
<clipPath id="clip0_143_71">
<rect width="100" height="100" fill="white"/>
</clipPath>
</defs>
</svg>
