<svg width="100" height="100" viewBox="0 0 100 100" fill="none" xmlns="http://www.w3.org/2000/svg">
<rect width="100" height="100" fill="white"/>
<path d="M68.1998 70.027C63.1858 65.5703 56.7107 63.1086 50.0024 63.1086C43.2941 63.1086 36.819 65.5703 31.805 70.027M82.7411 55.4857C73.8609 47.1822 62.1576 42.5628 50 42.5628C37.8425 42.5628 26.1391 47.1822 17.259 55.4857" stroke="black" stroke-width="6" stroke-linecap="round" stroke-linejoin="round"/>
<path d="M95.665 39.4248C83.0966 28.2128 66.8426 22.0164 50 22.0164C33.1573 22.0164 16.9033 28.2128 4.33496 39.4248" stroke="black" stroke-width="6" stroke-linecap="round" stroke-linejoin="round"/>
<path d="M50 95.1341C48.4925 95.1341 47.0189 94.6871 45.7655 93.8496C44.5121 93.0121 43.5351 91.8217 42.9582 90.429C42.3814 89.0363 42.2304 87.5037 42.5245 86.0252C42.8186 84.5467 43.5445 83.1886 44.6105 82.1227C45.6764 81.0567 47.0345 80.3308 48.513 80.0367C49.9916 79.7426 51.5241 79.8935 52.9168 80.4704C54.3095 81.0473 55.4999 82.0242 56.3374 83.2777C57.1749 84.5311 57.622 86.0047 57.622 87.5122C57.622 89.5337 56.8189 91.4723 55.3895 92.9017C53.9601 94.3311 52.0215 95.1341 50 95.1341Z" fill="#98BF79"/>
</svg>
