<svg width="100" height="79" viewBox="0 0 100 79" fill="none" xmlns="http://www.w3.org/2000/svg">
<path d="M68.1998 52.027C63.1858 47.5703 56.7107 45.1086 50.0024 45.1086C43.2941 45.1086 36.819 47.5703 31.805 52.027M82.7411 37.4857C73.8609 29.1822 62.1576 24.5628 50 24.5628C37.8425 24.5628 26.1391 29.1822 17.259 37.4857" stroke="black" stroke-width="6" stroke-linecap="round" stroke-linejoin="round"/>
<path d="M95.665 21.4248C83.0966 10.2128 66.8426 4.01645 50 4.01645C33.1573 4.01645 16.9033 10.2128 4.33496 21.4248" stroke="black" stroke-width="6" stroke-linecap="round" stroke-linejoin="round"/>
<path d="M50 77.1341C48.4925 77.1341 47.0189 76.6871 45.7655 75.8496C44.5121 75.0121 43.5351 73.8217 42.9582 72.429C42.3814 71.0363 42.2304 69.5037 42.5245 68.0252C42.8186 66.5467 43.5445 65.1886 44.6105 64.1227C45.6764 63.0567 47.0345 62.3308 48.513 62.0367C49.9916 61.7426 51.5241 61.8935 52.9168 62.4704C54.3095 63.0473 55.4999 64.0242 56.3374 65.2777C57.1749 66.5311 57.622 68.0047 57.622 69.5122C57.622 71.5337 56.8189 73.4723 55.3895 74.9017C53.9601 76.3311 52.0215 77.1341 50 77.1341V77.1341Z" fill="black"/>
</svg>
