<svg width="100" height="100" viewBox="0 0 100 100" fill="none" xmlns="http://www.w3.org/2000/svg">
<g clip-path="url(#clip0_188_94)">
<path d="M74.1667 36.3333V47.3333H63.1667" stroke="#98BF79" stroke-width="6" stroke-linecap="round" stroke-linejoin="round"/>
<path d="M69.565 56.5C68.3763 59.874 66.1232 62.7703 63.1453 64.7525C60.1674 66.7347 56.6259 67.6954 53.0545 67.4899C49.4831 67.2843 46.0753 65.9236 43.3445 63.6129C40.6136 61.3021 38.7077 58.1665 37.9139 54.6783C37.1202 51.1902 37.4815 47.5386 38.9435 44.2737C40.4056 41.0088 42.8891 38.3075 46.0198 36.5767C49.1506 34.846 52.759 34.1797 56.3014 34.678C59.8439 35.1764 63.1283 36.8126 65.66 39.34L74.1667 47.3333" stroke="#98BF79" stroke-width="6" stroke-linecap="round" stroke-linejoin="round"/>
</g>
<path d="M4.53583 14.2827V41.4979H31.751" stroke="black" stroke-width="6" stroke-linecap="round" stroke-linejoin="round"/>
<path d="M15.9208 64.1772C18.8619 72.5249 24.4362 79.6907 31.8039 84.5948C39.1716 89.499 47.9335 91.8759 56.7696 91.3673C65.6056 90.8588 74.037 87.4923 80.7934 81.7753C87.5498 76.0582 92.2651 68.3002 94.229 59.6702C96.1929 51.0402 95.2989 42.0057 91.6817 33.928C88.0645 25.8503 81.9201 19.1669 74.1742 14.8849C66.4284 10.6029 57.5007 8.95424 48.7364 10.1873C39.9721 11.4204 31.8459 15.4685 25.5822 21.7215L4.53583 41.4979" stroke="black" stroke-width="6" stroke-linecap="round" stroke-linejoin="round"/>
<defs>
<clipPath id="clip0_188_94">
<rect width="44" height="44" fill="white" transform="matrix(-1 0 0 1 76 29)"/>
</clipPath>
</defs>
</svg>
