<svg width="100" height="100" viewBox="0 0 100 100" fill="none" xmlns="http://www.w3.org/2000/svg">
<g clip-path="url(#clip0_140_117)">
<path d="M25 83.3333V41.6667C25 35.0363 27.6339 28.6774 32.3223 23.989C37.0107 19.3006 43.3696 16.6667 50 16.6667C56.6304 16.6667 62.9892 19.3006 67.6777 23.989C72.3661 28.6774 75 35.0363 75 41.6667V83.3333M8.33331 56.5208C8.33331 47.9667 16.6666 45.8333 25 45.8333V83.3333C20.5797 83.3333 16.3405 81.5774 13.2149 78.4518C10.0893 75.3262 8.33331 71.0869 8.33331 66.6667V56.5208ZM91.6667 56.5208C91.6667 47.9667 83.3333 45.8333 75 45.8333V83.3333C79.4203 83.3333 83.6595 81.5774 86.7851 78.4518C89.9107 75.3262 91.6667 71.0869 91.6667 66.6667V56.5208Z" stroke="black" stroke-width="6" stroke-linecap="round" stroke-linejoin="round"/>
<path d="M36 68C38.7614 68 41 65.7614 41 63C41 60.2386 38.7614 58 36 58C33.2386 58 31 60.2386 31 63C31 65.7614 33.2386 68 36 68Z" fill="#98BF79"/>
<path d="M50 68C52.7614 68 55 65.7614 55 63C55 60.2386 52.7614 58 50 58C47.2386 58 45 60.2386 45 63C45 65.7614 47.2386 68 50 68Z" fill="#98BF79"/>
<path d="M63.6136 68C66.3751 68 68.6136 65.7614 68.6136 63C68.6136 60.2386 66.3751 58 63.6136 58C60.8522 58 58.6136 60.2386 58.6136 63C58.6136 65.7614 60.8522 68 63.6136 68Z" fill="#98BF79"/>
</g>
<defs>
<clipPath id="clip0_140_117">
<rect width="100" height="100" fill="white"/>
</clipPath>
</defs>
</svg>
