<svg width="100" height="100" viewBox="0 0 100 100" fill="none" xmlns="http://www.w3.org/2000/svg">
<g clip-path="url(#clip0_140_62)">
<g clip-path="url(#clip1_140_62)">
<path d="M86.672 2.69131L58.4994 3.31929L59.1273 31.4919" stroke="black" stroke-width="6" stroke-linecap="round" stroke-linejoin="round"/>
<path d="M35.2849 14.6282C26.7114 17.8653 19.4222 23.801 14.5155 31.5411C9.60881 39.2812 7.35051 48.4062 8.08084 57.5413C8.81117 66.6765 12.4906 75.3268 18.5647 82.189C24.6388 89.0511 32.7785 93.7534 41.7574 95.5872C50.7363 97.4211 60.068 96.2871 68.3465 92.3563C76.6249 88.4255 83.4016 81.9107 87.6555 73.7935C91.9094 65.6763 93.4101 56.3965 91.9314 47.3524C90.4527 38.3082 86.0747 29.9895 79.4572 23.6498L58.4994 2.31931" stroke="black" stroke-width="6" stroke-linecap="round" stroke-linejoin="round"/>
<circle cx="50.5" cy="57.5" r="15.5" stroke="#98BF79" stroke-width="6"/>
</g>
</g>
<defs>
<clipPath id="clip0_140_62">
<rect width="100" height="100" fill="white"/>
</clipPath>
<clipPath id="clip1_140_62">
<rect width="100" height="90.0839" fill="white" transform="translate(94.0616 -2) rotate(88.7231)"/>
</clipPath>
</defs>
</svg>
