<svg width="377" height="216" viewBox="0 0 377 216" fill="none" xmlns="http://www.w3.org/2000/svg">
<g clip-path="url(#clip0_150_163)">
<circle cx="327" cy="50" r="50" fill="#DFEFDA"/>
<circle cx="75" cy="111" r="75" fill="#DAE4EF"/>
<g clip-path="url(#clip1_150_163)">
<path d="M138 27C138 23.4196 139.422 19.9858 141.954 17.4541C144.486 14.9223 147.92 13.5 151.5 13.5H213.411C216.991 13.5008 220.424 14.9236 222.956 17.4555L317.456 111.956C319.986 114.487 321.408 117.92 321.408 121.5C321.408 125.08 319.986 128.513 317.456 131.044L255.544 192.956C253.013 195.486 249.58 196.908 246 196.908C242.42 196.908 238.987 195.486 236.456 192.956L141.955 98.4555C139.424 95.9244 138.001 92.4911 138 88.911V27ZM185.25 81C190.621 81 195.771 78.8665 199.569 75.0689C203.367 71.2713 205.5 66.1206 205.5 60.75C205.5 55.3794 203.367 50.2287 199.569 46.4311C195.771 42.6335 190.621 40.5 185.25 40.5C179.879 40.5 174.729 42.6335 170.931 46.4311C167.133 50.2287 165 55.3794 165 60.75C165 66.1206 167.133 71.2713 170.931 75.0689C174.729 78.8665 179.879 81 185.25 81V81Z" fill="#98BF79"/>
<path d="M128.455 105.206C125.924 102.674 124.501 99.2411 124.5 95.661V27C120.92 27 117.486 28.4223 114.954 30.9541C112.422 33.4858 111 36.9196 111 40.5V102.411C111.001 105.991 112.424 109.424 114.956 111.956L209.456 206.456C211.987 208.986 215.42 210.408 219 210.408C222.58 210.408 226.013 208.986 228.544 206.456L229.125 205.875L128.455 105.206V105.206Z" fill="#0D599F"/>
</g>
</g>
<defs>
<clipPath id="clip0_150_163">
<rect width="377" height="216" fill="white"/>
</clipPath>
<clipPath id="clip1_150_163">
<rect width="216" height="216" fill="white" transform="translate(111)"/>
</clipPath>
</defs>
</svg>
