<svg width="600" height="401" viewBox="0 0 600 401" fill="none" xmlns="http://www.w3.org/2000/svg">
<g clip-path="url(#clip0_147_82)">
<circle cx="462.5" cy="258.5" r="142.5" fill="#DAE4EF"/>
<circle cx="105" cy="105" r="105" fill="#DFEFDA"/>
<path d="M448.543 116.562C448.269 113.797 447.298 111.145 445.721 108.857C444.143 106.569 442.011 104.718 439.524 103.478L307.857 37.6448C305.57 36.5006 303.049 35.9049 300.492 35.9049C297.935 35.9049 295.413 36.5006 293.127 37.6448L161.46 103.478C158.979 104.725 156.854 106.578 155.28 108.865C153.706 111.152 152.735 113.8 152.457 116.562C152.276 118.324 136.641 293.769 293.818 363.668C295.918 364.616 298.196 365.106 300.5 365.106C302.804 365.106 305.082 364.616 307.182 363.668C464.359 293.769 448.724 118.34 448.543 116.562V116.562ZM300.5 330.471C189.094 276.62 183.827 161.691 184.732 128.659L300.5 70.7754L416.186 128.626C416.795 161.362 410.787 277.048 300.5 330.471Z" fill="#98BF79"/>
<path d="M284.042 210.145L246.303 172.406L223.031 195.678L284.042 256.689L377.969 162.761L354.697 139.489L284.042 210.145Z" fill="#307EC6"/>
</g>
<defs>
<clipPath id="clip0_147_82">
<rect width="600" height="401" fill="white"/>
</clipPath>
</defs>
</svg>
