<svg width="600" height="401" viewBox="0 0 600 401" fill="none" xmlns="http://www.w3.org/2000/svg">
<g clip-path="url(#clip0_149_100)">
<circle cx="492" cy="293" r="108" fill="#DFEFDA"/>
<circle cx="105" cy="105" r="105" fill="#DAE4EF"/>
<rect x="199" y="17" width="279" height="368" fill="#EFE4C9"/>
<path d="M278.333 84.8533V87C278.33 92.0316 276.701 96.9276 273.688 100.958C270.676 104.988 266.441 107.936 261.616 109.362C256.791 110.789 251.634 110.618 246.914 108.874C242.194 107.13 238.164 103.908 235.426 99.6865C232.687 95.4654 231.386 90.4721 231.717 85.4514C232.048 80.4306 233.993 75.6514 237.263 71.8265C240.532 68.0016 244.95 65.3359 249.858 64.227C254.766 63.1181 259.901 63.6254 264.497 65.6733" stroke="#307EC6" stroke-width="4" stroke-linecap="round" stroke-linejoin="round"/>
<path d="M278.333 68.3333L255 91.69L248 84.69" stroke="#98BF79" stroke-width="4" stroke-linecap="round" stroke-linejoin="round"/>
<path d="M278.333 182.853V185C278.33 190.032 276.701 194.928 273.688 198.958C270.676 202.988 266.441 205.936 261.616 207.362C256.791 208.789 251.634 208.618 246.914 206.874C242.194 205.13 238.164 201.908 235.426 197.686C232.687 193.465 231.386 188.472 231.717 183.451C232.048 178.431 233.993 173.651 237.263 169.827C240.532 166.002 244.95 163.336 249.858 162.227C254.766 161.118 259.901 161.625 264.497 163.673" stroke="#307EC6" stroke-width="4" stroke-linecap="round" stroke-linejoin="round"/>
<path d="M278.333 166.333L255 189.69L248 182.69" stroke="#98BF79" stroke-width="4" stroke-linecap="round" stroke-linejoin="round"/>
<path d="M283.333 280.853V283C283.33 288.032 281.701 292.928 278.688 296.958C275.676 300.988 271.441 303.936 266.616 305.362C261.791 306.789 256.634 306.618 251.914 304.874C247.194 303.13 243.164 299.908 240.426 295.686C237.687 291.465 236.386 286.472 236.717 281.451C237.048 276.431 238.993 271.651 242.263 267.827C245.532 264.002 249.95 261.336 254.858 260.227C259.766 259.118 264.901 259.625 269.497 261.673" stroke="#307EC6" stroke-width="4" stroke-linecap="round" stroke-linejoin="round"/>
<path d="M283.333 264.333L260 287.69L253 280.69" stroke="#98BF79" stroke-width="4" stroke-linecap="round" stroke-linejoin="round"/>
<line x1="300.917" y1="79.0017" x2="445.917" y2="73.0017" stroke="#CEDBC3" stroke-width="4"/>
<line x1="300.917" y1="177.002" x2="445.917" y2="171.002" stroke="#CEDBC3" stroke-width="4"/>
<line x1="305.917" y1="275.002" x2="450.917" y2="269.002" stroke="#CEDBC3" stroke-width="4"/>
<line x1="300.917" y1="94.0017" x2="445.917" y2="88.0017" stroke="#CEDBC3" stroke-width="4"/>
<line x1="300.917" y1="192.002" x2="445.917" y2="186.002" stroke="#CEDBC3" stroke-width="4"/>
<line x1="305.917" y1="290.002" x2="450.917" y2="284.002" stroke="#CEDBC3" stroke-width="4"/>
</g>
<defs>
<clipPath id="clip0_149_100">
<rect width="600" height="401" fill="white"/>
</clipPath>
</defs>
</svg>
